<?xml version="1.0" encoding="UTF-8" standalone="no"?>
<svg
   version="1.1"
   width="5000px"
   height="5000px"
   style="shape-rendering:geometricPrecision; text-rendering:geometricPrecision; image-rendering:optimizeQuality; fill-rule:evenodd; clip-rule:evenodd"
   id="svg70"
   sodipodi:docname="logo_2.svg"
   inkscape:version="1.2.2 (b0a8486, 2022-12-01)"
   xmlns:inkscape="http://www.inkscape.org/namespaces/inkscape"
   xmlns:sodipodi="http://sodipodi.sourceforge.net/DTD/sodipodi-0.dtd"
   xmlns="http://www.w3.org/2000/svg"
   xmlns:svg="http://www.w3.org/2000/svg">
  <defs
     id="defs74" />
  <sodipodi:namedview
     id="namedview72"
     pagecolor="#505050"
     bordercolor="#eeeeee"
     borderopacity="1"
     inkscape:showpageshadow="0"
     inkscape:pageopacity="0"
     inkscape:pagecheckerboard="0"
     inkscape:deskcolor="#505050"
     showgrid="false"
     inkscape:zoom="0.050203033"
     inkscape:cx="2051.6689"
     inkscape:cy="2609.4041"
     inkscape:window-width="1343"
     inkscape:window-height="456"
     inkscape:window-x="0"
     inkscape:window-y="25"
     inkscape:window-maximized="0"
     inkscape:current-layer="svg70" />
  <g
     id="g363"
     transform="matrix(1.2731723,0,0,1.2929282,-682.26053,-326.98751)">
    <g
       id="g4">
      <path
         style="opacity:0.996"
         fill="#004864"
         d="m 4247.5,826.5 c 1.31,2.071 1.98,4.571 2,7.5 -10.41,131.128 -43.24,256.29 -98.5,375.5 -42.41,91.07 -100.25,170.9 -173.5,239.5 -62.35,55.24 -132.35,98.91 -210,131 -56.78,25.37 -116.11,41.37 -178,48 -33.31,2.44 -66.64,4.44 -100,6 -13.7,0.95 -27.37,2.28 -41,4 -0.33,0.33 -0.67,0.67 -1,1 81.38,16.6 163.38,20.94 246,13 26.55,-2.97 52.55,-8.47 78,-16.5 1.02,0.5 1.19,1.17 0.5,2 -69.22,79.56 -139.55,158.23 -211,236 -46.37,50.3 -102.87,84.13 -169.5,101.5 -49.46,13.21 -99.8,20.54 -151,22 58.01,8.91 116.35,12.24 175,10 29.14,-1.26 57.8,-5.59 86,-13 11.58,-3.53 22.75,-8.03 33.5,-13.5 0.67,1 0.67,2 0,3 -39.26,71.61 -89.43,134.78 -150.5,189.5 -27.26,23.65 -57.26,43.31 -90,59 -25.63,11.66 -52.3,19.66 -80,24 52.76,7.43 104.09,1.93 154,-16.5 -25.5,49.64 -59.84,92.81 -103,129.5 -40.17,32.51 -86.17,50.51 -138,54 54.4,3.99 106.07,-6.01 155,-30 6.25,-3.71 12.42,-7.54 18.5,-11.5 -1.31,3.64 -2.98,7.31 -5,11 -40.04,67.18 -91.87,123.68 -155.5,169.5 -50.39,35.13 -106.39,54.13 -168,57 28.26,18.07 58.93,24.73 92,20 66.04,-25.18 130.7,-21.85 194,10 4.84,2.92 9.51,6.09 14,9.5 -70.63,-2.93 -135.63,14.57 -195,52.5 -21.82,15.48 -41.48,33.48 -59,54 -60.03,52.86 -130.37,79.02 -211,78.5 -30.36,-0.47 -60.36,-3.97 -90,-10.5 -2.28,-0.23 -4.28,-1.07 -6,-2.5 46.5,-182.32 105.66,-360.32 177.5,-534 73.25,-176.88 163.25,-343.88 270,-501 77.12,-112.79 165.29,-216.96 264.5,-312.5 63.11,-60.14 131.11,-113.81 204,-161 21.01,-12.84 42.34,-25.17 64,-37 -2.74,0.02 -5.41,0.69 -8,2 -107.63,46.77 -205.63,108.1 -294,184 -102,89.09 -191.84,188.59 -269.5,298.5 -94.04,134.66 -175.37,277.33 -244,428 -92.3,204.56 -166.97,415.56 -224,633 -25.04,102.23 -44.04,205.56 -57,310 -3.7,31.9 -5.03,63.9 -4,96 0.51,15.07 3.18,29.74 8,44 1.89,5.44 4.55,10.44 8,15 0.67,2.33 0.67,4.67 0,7 -26.56,34.78 -50.9,71.12 -73,109 -18.68,33.05 -30.35,68.38 -35,106 -0.5,7.66 -0.67,15.33 -0.5,23 -7.39,1.8 -14.72,3.8 -22,6 -9.07,-61.05 -15.57,-122.38 -19.5,-184 -3.05,-44.48 -1.72,-88.81 4,-133 9.06,-56.29 21.06,-111.96 36,-167 25.92,-95.03 53.09,-189.69 81.5,-284 -44.12,-53.26 -98.12,-93.43 -162,-120.5 -33.07,-13.68 -67.4,-22.52 -103,-26.5 62.57,-23.84 122.9,-19.18 181,14 0.33,-0.33 0.67,-0.67 1,-1 -32.58,-46.16 -58.08,-96.16 -76.5,-150 -15.19,-44.67 -19.52,-90.34 -13,-137 1.06,-6.46 2.56,-12.79 4.5,-19 20.64,56.96 48.81,109.63 84.5,158 6.63,8.3 13.63,16.3 21,24 -31.59,-86.11 -45.59,-175.11 -42,-267 2.84,-67.7 20.17,-131.37 52,-191 -0.51,57.31 12.49,111.31 39,162 6.89,11.55 14.55,22.55 23,33 -18.86,-93.61 -23.2,-187.95 -13,-283 7.49,-68.31 27.49,-132.64 60,-193 6.75,-11.17 13.75,-22.17 21,-33 4.81,71.25 24.81,137.92 60,200 -3.74,-125.65 19.6,-245.98 70,-361 54.15,-119.15 137.49,-212.15 250,-279 -3.1,10.56 -7.1,20.89 -12,31 -20.86,52.11 -33.86,106.11 -39,162 -0.67,17 -0.67,34 0,51 0.68,9.43 2.01,18.77 4,28 26.8,-116.93 78.47,-220.93 155,-312 37.18,-42.54 79.68,-78.37 127.5,-107.5 0.83,-0.69 1.5,-0.52 2,0.5 -15.38,59.58 -26.88,119.92 -34.5,181 -1.77,16.31 -2.77,32.65 -3,49 35.1,-96.09 89.6,-179.25 163.5,-249.5 42.74,-38.51 91.08,-68.35 145,-89.5 0.33,0.33 0.67,0.67 1,1 -26.6,51.68 -49.77,104.68 -69.5,159 45.64,-70.67 99.14,-135.17 160.5,-193.5 26.91,-23.461 56.24,-43.461 88,-60 29.13,-14.062 57.46,-29.395 85,-46 3.68,-3.403 7.18,-6.903 10.5,-10.5 -17.26,47.903 -40.59,92.57 -70,134 -0.67,0.67 -0.67,1.33 0,2 44.85,-45.529 95.35,-83.363 151.5,-113.5 87.13,-45.82 179.46,-75.82 277,-90 23.1,-3.262 46.1,-6.096 69,-8.5 z"
         id="path2" />
    </g>
    <g
       id="g8">
      <path
         style="opacity:0.996"
         fill="#c1141a"
         d="m 1881.5,955.5 c 30.22,12.275 59.55,26.441 88,42.5 76.99,43.83 148.33,95.5 214,155 110.45,101.73 207.61,214.23 291.5,337.5 28.92,42.82 56.58,86.49 83,131 16.77,28.72 31.27,58.55 43.5,89.5 -0.33,0.17 -0.67,0.33 -1,0.5 -111.36,-165.23 -243.69,-312.4 -397,-441.5 -69.68,-57.36 -144.68,-107.03 -225,-149 -25.97,-13.07 -52.47,-24.9 -79.5,-35.5 -53.56,44.4 -105.72,90.57 -156.5,138.5 -99.92,96.25 -197.42,194.75 -292.5,295.5 -76.37,82.7 -152.37,165.7 -228,249 -44.5,50.5 -89,101 -133.5,151.5 248.41,123.63 478.74,273.63 691,450 141.23,118.89 269.06,250.39 383.5,394.5 65.74,83.78 124.4,172.45 176,266 7.61,14.88 14.94,29.88 22,45 1.64,3.24 2.64,6.58 3,10 -90.83,-114.2 -189,-222.37 -294.5,-324.5 -98.96,-91.42 -201.62,-178.08 -308,-260 -127.97,-93.03 -262.64,-176.03 -404,-249 -196.74,-101.21 -399.407,-188.38 -608,-261.5 -0.149,-1.05 0.017,-2.05 0.5,-3 153.252,-158.25 309.42,-313.42 468.5,-465.5 101.5,-96.51 204.5,-191.17 309,-284 81.63,-71.97 165.29,-141.31 251,-208 34.05,-25.34 68.38,-50.178 103,-74.5 z"
         id="path6" />
    </g>
    <g
       id="g12">
      <path
         style="opacity:0.996"
         fill="#c1141a"
         d="m 1108.5,2187.5 c 21.87,8.93 43.54,18.43 65,28.5 30.59,14.36 60.92,29.19 91,44.5 -37.42,53.84 -75.09,107.51 -113,161 34.37,12.29 69.03,24.12 104,35.5 171.95,58.31 337.95,130.31 498,216 229.28,126.53 436.45,283.03 621.5,469.5 16.7,17.03 33.03,34.36 49,52 -1.18,15.78 -3.35,31.45 -6.5,47 -325.72,-281.77 -697.05,-483.94 -1114,-606.5 -149.08,-45.35 -300.08,-83.02 -453,-113 84.685,-112.52 170.68,-224.02 258,-334.5 z"
         id="path10" />
    </g>
  </g>
</svg>
