<?xml version="1.0" encoding="UTF-8"?>
<!DOCTYPE svg PUBLIC "-//W3C//DTD SVG 1.1//EN" "http://www.w3.org/Graphics/SVG/1.1/DTD/svg11.dtd">
<svg xmlns="http://www.w3.org/2000/svg" version="1.1" width="4000px" height="1000px" style="shape-rendering:geometricPrecision; text-rendering:geometricPrecision; image-rendering:optimizeQuality; fill-rule:evenodd; clip-rule:evenodd" xmlns:xlink="http://www.w3.org/1999/xlink">
<g><path style="opacity:0.987" fill="#004864" d="M 1125.5,136.5 C 1127.5,136.5 1129.5,136.5 1131.5,136.5C 1127.9,185.935 1113.07,231.602 1087,273.5C 1056.47,317.371 1014.97,345.204 962.5,357C 945.865,359.045 929.198,360.712 912.5,362C 933.7,366.118 955.033,367.118 976.5,365C 984.262,363.779 991.929,362.446 999.5,361C 982.372,381.13 964.872,400.964 947,420.5C 928.26,442.622 904.427,455.456 875.5,459C 868.533,459.998 861.533,460.664 854.5,461C 875.847,464.227 897.18,464.227 918.5,461C 923.137,459.899 927.637,458.399 932,456.5C 932.5,456.833 933,457.167 933.5,457.5C 918.873,484.292 898.873,506.125 873.5,523C 865.919,527.124 857.919,530.124 849.5,532C 862.298,533.948 874.798,532.448 887,527.5C 877.369,548.8 861.869,564.634 840.5,575C 837.226,576.202 833.893,577.202 830.5,578C 843.844,578.081 856.177,574.581 867.5,567.5C 856.191,590.002 839.524,608.168 817.5,622C 805.627,628.469 792.96,632.469 779.5,634C 785.018,636.839 790.851,638.673 797,639.5C 804.398,637.256 811.898,635.423 819.5,634C 834.339,632.793 848.006,636.127 860.5,644C 831.837,643.17 808.171,653.504 789.5,675C 764.084,695.087 735.751,700.587 704.5,691.5C 727.763,596.167 764.929,506.834 816,423.5C 845.989,376.498 882.156,334.664 924.5,298C 936.815,288.509 949.482,279.509 962.5,271C 943.364,279.575 925.364,290.242 908.5,303C 884.042,322.791 861.542,344.624 841,368.5C 796.4,425.323 760.734,487.656 734,555.5C 705.466,624.436 685.466,695.769 674,769.5C 671.623,783.811 671.289,798.145 673,812.5C 673.725,814.949 674.725,817.283 676,819.5C 676.667,820.833 676.667,822.167 676,823.5C 662.491,839.367 652.824,857.367 647,877.5C 646.667,881.167 646.333,884.833 646,888.5C 644.215,889.24 642.382,889.907 640.5,890.5C 633.884,859.422 632.384,828.088 636,796.5C 644.703,756.521 655.203,717.021 667.5,678C 648.619,654.884 624.286,641.051 594.5,636.5C 606.215,632.26 618.215,631.426 630.5,634C 634.975,635.155 639.142,636.988 643,639.5C 640.587,634.025 637.587,628.691 634,623.5C 622.54,603.994 617.873,582.994 620,560.5C 620.202,558.744 620.702,557.078 621.5,555.5C 628.364,572.903 637.53,588.903 649,603.5C 641.101,579.203 637.768,554.203 639,528.5C 639.986,510.54 644.986,493.873 654,478.5C 653.729,497.424 658.729,514.757 669,530.5C 668.089,520.87 667.089,511.203 666,501.5C 662.955,470.522 666.955,440.522 678,411.5C 681.205,404.309 685.205,397.642 690,391.5C 691.11,410.274 696.11,427.941 705,444.5C 704.861,399.707 716.528,358.374 740,320.5C 753.968,300.197 771.468,283.697 792.5,271C 793.5,270.333 794.5,270.333 795.5,271C 784.309,293.619 779.809,317.452 782,342.5C 791.093,306.132 808.593,274.632 834.5,248C 842.129,240.869 850.463,234.703 859.5,229.5C 859.833,230.167 860.167,230.833 860.5,231.5C 855.378,250.895 852.212,270.562 851,290.5C 865.989,249.187 893.156,219.02 932.5,200C 933.833,199.333 935.167,199.333 936.5,200C 929.984,212.186 924.484,224.686 920,237.5C 932.295,219.527 946.462,203.027 962.5,188C 976.178,177.821 990.844,169.155 1006.5,162C 1008.61,160.859 1010.44,159.359 1012,157.5C 1012.12,159.169 1011.79,160.835 1011,162.5C 1006.85,171.797 1002.51,180.797 998,189.5C 1022.11,168.023 1049.94,153.19 1081.5,145C 1096.12,141.178 1110.79,138.345 1125.5,136.5 Z"/></g>
<g><path style="opacity:0.984" fill="#c1141a" d="M 473.5,172.5 C 481.576,174.534 489.242,177.7 496.5,182C 532.39,202.529 564.223,228.362 592,259.5C 623.35,294.517 650.016,332.85 672,374.5C 673.314,377.089 673.981,379.756 674,382.5C 635.298,323.464 586.798,273.964 528.5,234C 513.043,224.224 496.876,215.724 480,208.5C 423.698,258.468 370.365,311.468 320,367.5C 298.647,391.352 277.481,415.352 256.5,439.5C 355.88,488.444 443.713,553.111 520,633.5C 555.707,672.213 585.541,715.047 609.5,762C 609.167,762.167 608.833,762.333 608.5,762.5C 538.78,675.258 455.78,603.758 359.5,548C 295.549,513.522 229.549,483.689 161.5,458.5C 240.302,375.188 322.968,296.355 409.5,222C 430.36,204.754 451.694,188.254 473.5,172.5 Z"/></g>
<g><path style="opacity:0.985" fill="#004864" d="M 1268.5,324.5 C 1289.57,322.81 1308.91,327.643 1326.5,339C 1336.56,348.28 1343.73,359.447 1348,372.5C 1351.79,384.789 1354.29,397.289 1355.5,410C 1338.98,413.225 1322.48,416.392 1306,419.5C 1304.88,406.272 1302.21,393.272 1298,380.5C 1293.03,371.705 1285.36,367.372 1275,367.5C 1257.72,369.955 1249.22,379.955 1249.5,397.5C 1249.51,409.042 1253.01,419.375 1260,428.5C 1281.05,448.72 1302.55,468.386 1324.5,487.5C 1360.04,521.998 1368.87,562.331 1351,608.5C 1338.48,629.527 1319.98,641.694 1295.5,645C 1271.6,648.257 1249.27,643.924 1228.5,632C 1214.21,620.35 1204.71,605.517 1200,587.5C 1196.91,575.012 1195.07,562.345 1194.5,549.5C 1211.12,546.242 1227.79,543.242 1244.5,540.5C 1244.92,556.099 1248.09,571.099 1254,585.5C 1264.02,601.035 1277.52,604.868 1294.5,597C 1301.83,590.512 1305.49,582.345 1305.5,572.5C 1305.18,555.875 1299.35,541.542 1288,529.5C 1269.76,511.925 1250.93,495.092 1231.5,479C 1196.34,447.898 1186.51,410.065 1202,365.5C 1210.11,348.059 1223.28,336.226 1241.5,330C 1250.45,327.178 1259.45,325.344 1268.5,324.5 Z"/></g>
<g><path style="opacity:0.99" fill="#004864" d="M 1789.5,328.5 C 1807.5,328.5 1825.5,328.5 1843.5,328.5C 1843.5,432.833 1843.5,537.167 1843.5,641.5C 1825.5,641.5 1807.5,641.5 1789.5,641.5C 1789.67,636.821 1789.5,632.155 1789,627.5C 1768.5,647.286 1745.67,650.452 1720.5,637C 1707.99,626.492 1700.83,612.992 1699,596.5C 1698.09,590.527 1697.43,584.527 1697,578.5C 1696.33,547.167 1696.33,515.833 1697,484.5C 1697.38,464.948 1702.72,446.948 1713,430.5C 1725.59,416.969 1741.09,411.802 1759.5,415C 1770.97,417.151 1780.8,422.318 1789,430.5C 1789.5,396.502 1789.67,362.502 1789.5,328.5 Z M 1764.5,451.5 C 1773.3,450.435 1781.3,452.435 1788.5,457.5C 1789.83,505.5 1789.83,553.5 1788.5,601.5C 1766.67,614.333 1754.17,608.333 1751,583.5C 1750.33,546.833 1750.33,510.167 1751,473.5C 1751.76,463.609 1756.26,456.276 1764.5,451.5 Z"/></g>
<g><path style="opacity:0.984" fill="#004864" d="M 2053.5,328.5 C 2073.9,327.852 2094.07,328.519 2114,330.5C 2128.21,400.527 2142.54,470.527 2157,540.5C 2172.73,470.017 2187.9,399.35 2202.5,328.5C 2222.17,328.5 2241.83,328.5 2261.5,328.5C 2263.01,432.741 2265.01,536.907 2267.5,641C 2252.84,641.5 2238.17,641.667 2223.5,641.5C 2222.09,570.833 2220.59,500.166 2219,429.5C 2204.54,499.473 2190.21,569.473 2176,639.5C 2170.24,640.81 2164.24,641.476 2158,641.5C 2151.92,641.49 2145.92,641.157 2140,640.5C 2125.46,570.134 2110.79,499.801 2096,429.5C 2094.75,500.183 2093.25,570.849 2091.5,641.5C 2077.17,641.5 2062.83,641.5 2048.5,641.5C 2049.83,537.161 2051.49,432.827 2053.5,328.5 Z"/></g>
<g><path style="opacity:0.984" fill="#004864" d="M 2789.5,328.5 C 2809.9,327.852 2830.07,328.519 2850,330.5C 2864.46,400.473 2878.79,470.473 2893,540.5C 2908.78,470.027 2923.95,399.36 2938.5,328.5C 2958.17,328.5 2977.83,328.5 2997.5,328.5C 2999.09,432.851 3001.09,537.184 3003.5,641.5C 2988.83,641.5 2974.17,641.5 2959.5,641.5C 2958.18,570.831 2956.68,500.164 2955,429.5C 2940.79,499.527 2926.46,569.527 2912,639.5C 2906.24,640.81 2900.24,641.476 2894,641.5C 2887.92,641.49 2881.92,641.157 2876,640.5C 2861.79,571.139 2847.46,501.806 2833,432.5C 2832.67,432.833 2832.33,433.167 2832,433.5C 2830.78,502.863 2829.28,572.196 2827.5,641.5C 2813.17,641.5 2798.83,641.5 2784.5,641.5C 2785.93,537.163 2787.59,432.829 2789.5,328.5 Z"/></g>
<g><path style="opacity:0.991" fill="#004964" d="M 3516.5,328.5 C 3534.17,328.5 3551.83,328.5 3569.5,328.5C 3569.33,365.168 3569.5,401.835 3570,438.5C 3588.49,419.004 3610.99,411.504 3637.5,416C 3651.87,422.877 3659.71,434.377 3661,450.5C 3661.5,514.166 3661.67,577.832 3661.5,641.5C 3643.83,641.5 3626.17,641.5 3608.5,641.5C 3608.67,582.499 3608.5,523.499 3608,464.5C 3606.06,457.73 3601.56,454.063 3594.5,453.5C 3585.48,455.01 3577.48,458.677 3570.5,464.5C 3569.5,523.496 3569.17,582.496 3569.5,641.5C 3551.83,641.5 3534.17,641.5 3516.5,641.5C 3516.5,537.167 3516.5,432.833 3516.5,328.5 Z"/></g>
<g><path style="opacity:0.981" fill="#004864" d="M 1398.5,350.5 C 1416.5,350.5 1434.5,350.5 1452.5,350.5C 1452.5,372.833 1452.5,395.167 1452.5,417.5C 1463.5,417.5 1474.5,417.5 1485.5,417.5C 1485.5,429.5 1485.5,441.5 1485.5,453.5C 1474.5,453.5 1463.5,453.5 1452.5,453.5C 1452.33,498.168 1452.5,542.835 1453,587.5C 1455.83,598.102 1462.83,602.769 1474,601.5C 1478.85,601.264 1483.68,600.931 1488.5,600.5C 1489.14,614.579 1488.47,628.412 1486.5,642C 1468.48,645.132 1450.48,645.132 1432.5,642C 1415.6,637.434 1405.1,626.6 1401,609.5C 1400.15,605.531 1399.48,601.531 1399,597.5C 1398.5,549.501 1398.33,501.501 1398.5,453.5C 1391.17,453.5 1383.83,453.5 1376.5,453.5C 1376.5,441.5 1376.5,429.5 1376.5,417.5C 1383.83,417.5 1391.17,417.5 1398.5,417.5C 1398.5,395.167 1398.5,372.833 1398.5,350.5 Z"/></g>
<g><path style="opacity:0.989" fill="#004865" d="M 2490.5,350.5 C 2508.5,350.5 2526.5,350.5 2544.5,350.5C 2544.5,372.833 2544.5,395.167 2544.5,417.5C 2555.5,417.5 2566.5,417.5 2577.5,417.5C 2577.5,429.5 2577.5,441.5 2577.5,453.5C 2566.5,453.5 2555.5,453.5 2544.5,453.5C 2544.33,498.835 2544.5,544.168 2545,589.5C 2546.93,595.767 2551.1,599.601 2557.5,601C 2565.19,601.597 2572.85,601.43 2580.5,600.5C 2581.14,614.579 2580.47,628.412 2578.5,642C 2557.98,645.991 2537.64,645.325 2517.5,640C 2506.24,635.741 2498.74,627.908 2495,616.5C 2493.04,611.323 2491.71,605.99 2491,600.5C 2490.5,551.501 2490.33,502.501 2490.5,453.5C 2482.83,453.5 2475.17,453.5 2467.5,453.5C 2467.5,441.5 2467.5,429.5 2467.5,417.5C 2475.17,417.5 2482.83,417.5 2490.5,417.5C 2490.5,395.167 2490.5,372.833 2490.5,350.5 Z"/></g>
<g><path style="opacity:0.988" fill="#004864" d="M 3226.5,350.5 C 3244.5,350.5 3262.5,350.5 3280.5,350.5C 3280.5,372.833 3280.5,395.167 3280.5,417.5C 3291.5,417.5 3302.5,417.5 3313.5,417.5C 3313.5,429.5 3313.5,441.5 3313.5,453.5C 3302.5,453.5 3291.5,453.5 3280.5,453.5C 3280.33,498.501 3280.5,543.501 3281,588.5C 3284.15,598.695 3291.15,603.028 3302,601.5C 3306.85,601.264 3311.68,600.931 3316.5,600.5C 3317.14,614.579 3316.47,628.412 3314.5,642C 3293.98,645.991 3273.64,645.325 3253.5,640C 3237.06,631.642 3228.22,618.142 3227,599.5C 3226.5,550.834 3226.33,502.168 3226.5,453.5C 3218.83,453.5 3211.17,453.5 3203.5,453.5C 3203.5,441.5 3203.5,429.5 3203.5,417.5C 3211.17,417.5 3218.83,417.5 3226.5,417.5C 3226.5,395.167 3226.5,372.833 3226.5,350.5 Z"/></g>
<g><path style="opacity:0.982" fill="#004864" d="M 2366.5,414.5 C 2375.51,414.334 2384.51,414.5 2393.5,415C 2425.59,420.098 2442.76,438.931 2445,471.5C 2445.33,514.5 2445.67,557.5 2446,600.5C 2446.72,614.213 2447.88,627.88 2449.5,641.5C 2433.49,641.833 2417.49,641.499 2401.5,640.5C 2399.56,631.19 2397.73,621.857 2396,612.5C 2383.91,641.96 2362.74,651.46 2332.5,641C 2313.69,629.572 2304.03,612.738 2303.5,590.5C 2304.17,561.653 2316.84,539.82 2341.5,525C 2358.04,516.431 2375.04,508.931 2392.5,502.5C 2393.87,490.471 2393.7,478.471 2392,466.5C 2388.84,456.334 2382.01,452.5 2371.5,455C 2363.93,458.261 2359.76,464.095 2359,472.5C 2358.55,479.177 2358.05,485.844 2357.5,492.5C 2340.5,491.757 2323.5,491.09 2306.5,490.5C 2306.48,469.905 2312.31,451.239 2324,434.5C 2335.97,423.098 2350.14,416.432 2366.5,414.5 Z M 2391.5,530.5 C 2392.83,540.311 2393.5,550.477 2393.5,561C 2393.33,571.167 2393.17,581.333 2393,591.5C 2387.89,598.933 2380.89,603.6 2372,605.5C 2361.94,603.772 2356.27,597.772 2355,587.5C 2352.1,569.475 2357.93,554.975 2372.5,544C 2378.9,539.478 2385.23,534.978 2391.5,530.5 Z"/></g>
<g><path style="opacity:0.983" fill="#004864" d="M 2664.5,414.5 C 2714.64,408.455 2741.81,430.455 2746,480.5C 2746.5,497.83 2746.67,515.163 2746.5,532.5C 2717.17,532.5 2687.83,532.5 2658.5,532.5C 2658.33,550.503 2658.5,568.503 2659,586.5C 2660.58,602.364 2669.08,608.53 2684.5,605C 2690.55,602.099 2694.05,597.265 2695,590.5C 2696.24,579.87 2696.74,569.203 2696.5,558.5C 2713.17,558.5 2729.83,558.5 2746.5,558.5C 2751.22,624.622 2720.88,652.789 2655.5,643C 2630.46,637.622 2614.96,622.455 2609,597.5C 2607.74,591.878 2606.74,586.211 2606,580.5C 2605.33,546.833 2605.33,513.167 2606,479.5C 2608.34,442.008 2627.84,420.342 2664.5,414.5 Z M 2670.5,453.5 C 2684.66,450.858 2692.83,456.525 2695,470.5C 2696.23,482.134 2696.73,493.8 2696.5,505.5C 2683.83,505.5 2671.17,505.5 2658.5,505.5C 2657.91,491.729 2658.75,478.062 2661,464.5C 2662.63,459.382 2665.79,455.715 2670.5,453.5 Z"/></g>
<g><path style="opacity:0.983" fill="#004864" d="M 3103.5,414.5 C 3120.05,412.914 3136.05,415.081 3151.5,421C 3169.88,432.229 3179.71,448.729 3181,470.5C 3181.33,513.5 3181.67,556.5 3182,599.5C 3182.78,613.539 3183.94,627.539 3185.5,641.5C 3169.5,641.5 3153.5,641.5 3137.5,641.5C 3135.88,631.796 3134.05,622.129 3132,612.5C 3121.47,639.682 3101.97,649.849 3073.5,643C 3051.43,632.904 3040.1,615.571 3039.5,591C 3040.04,561.918 3052.7,539.918 3077.5,525C 3094.04,516.431 3111.04,508.931 3128.5,502.5C 3129.89,490.465 3129.72,478.465 3128,466.5C 3124.84,456.334 3118.01,452.5 3107.5,455C 3099.93,458.261 3095.76,464.095 3095,472.5C 3094.61,479.184 3094.11,485.85 3093.5,492.5C 3076.49,491.923 3059.49,491.089 3042.5,490C 3042.55,469.631 3048.38,451.131 3060,434.5C 3072.22,422.806 3086.72,416.139 3103.5,414.5 Z M 3127.5,530.5 C 3128.83,540.311 3129.5,550.477 3129.5,561C 3129.33,571.167 3129.17,581.333 3129,591.5C 3125.19,595.645 3121.02,599.478 3116.5,603C 3106.1,607.31 3098.26,604.476 3093,594.5C 3086.49,574.044 3091.65,557.21 3108.5,544C 3114.9,539.478 3121.23,534.978 3127.5,530.5 Z"/></g>
<g><path style="opacity:0.985" fill="#004864" d="M 3399.5,414.5 C 3414.02,413.696 3428.35,414.863 3442.5,418C 3466.49,426.09 3479.33,442.923 3481,468.5C 3481.5,479.828 3481.67,491.162 3481.5,502.5C 3464.83,502.5 3448.17,502.5 3431.5,502.5C 3431.67,492.494 3431.5,482.494 3431,472.5C 3429.53,454.678 3420.36,448.845 3403.5,455C 3398.55,458.936 3396.05,464.102 3396,470.5C 3394.89,490.474 3394.39,510.474 3394.5,530.5C 3394.39,550.195 3394.89,569.862 3396,589.5C 3398.26,603.753 3406.42,609.253 3420.5,606C 3423.1,605.117 3425.27,603.617 3427,601.5C 3429.11,596.716 3430.45,591.716 3431,586.5C 3431.5,575.505 3431.67,564.505 3431.5,553.5C 3448.17,553.5 3464.83,553.5 3481.5,553.5C 3481.67,565.505 3481.5,577.505 3481,589.5C 3477.95,620.543 3461.12,638.71 3430.5,644C 3410.82,646.939 3391.82,644.606 3373.5,637C 3359.47,628.619 3350.3,616.452 3346,600.5C 3344.02,593.621 3342.69,586.621 3342,579.5C 3341.33,546.167 3341.33,512.833 3342,479.5C 3343,460.486 3349.83,443.986 3362.5,430C 3373.5,421.494 3385.84,416.327 3399.5,414.5 Z"/></g>
<g><path style="opacity:0.988" fill="#004864" d="M 1516.5,417.5 C 1534.17,417.5 1551.83,417.5 1569.5,417.5C 1569.33,476.501 1569.5,535.501 1570,594.5C 1571.61,602.112 1576.28,606.112 1584,606.5C 1592.63,605.352 1600.29,602.019 1607,596.5C 1607.5,536.834 1607.67,477.168 1607.5,417.5C 1625.17,417.5 1642.83,417.5 1660.5,417.5C 1660.5,492.167 1660.5,566.833 1660.5,641.5C 1642.83,641.5 1625.17,641.5 1607.5,641.5C 1607.67,634.825 1607.5,628.158 1607,621.5C 1589.47,639.343 1568.3,646.843 1543.5,644C 1532.85,640.683 1525.35,633.85 1521,623.5C 1519.2,618.625 1517.86,613.625 1517,608.5C 1516.5,544.834 1516.33,481.168 1516.5,417.5 Z"/></g>
<g><path style="opacity:0.981" fill="#004864" d="M 1865.5,417.5 C 1882.83,417.5 1900.17,417.5 1917.5,417.5C 1926.81,465.526 1936.31,513.526 1946,561.5C 1954.28,513.506 1962.44,465.506 1970.5,417.5C 1987.84,417.333 2005.17,417.5 2022.5,418C 2004.55,496.769 1986.71,575.602 1969,654.5C 1962.39,679.741 1946.23,694.908 1920.5,700C 1908.58,701.963 1896.58,702.796 1884.5,702.5C 1884.5,689.5 1884.5,676.5 1884.5,663.5C 1894.33,663.611 1904,662.445 1913.5,660C 1919.91,657.353 1922.91,652.52 1922.5,645.5C 1921.66,638.781 1920.49,632.114 1919,625.5C 1901.16,556.148 1883.33,486.814 1865.5,417.5 Z"/></g>
<g><path style="opacity:0.983" fill="#c1141a" d="M 260.5,513.5 C 275.526,519.512 290.192,526.345 304.5,534C 294.413,548.842 284.079,563.509 273.5,578C 330.422,596.291 385.422,619.291 438.5,647C 508.145,685.287 570.311,733.453 625,791.5C 625.333,796.174 625.167,800.84 624.5,805.5C 623.448,805.649 622.448,805.483 621.5,805C 530.902,726.681 427.569,670.681 311.5,637C 271.257,625.118 230.591,614.952 189.5,606.5C 212.807,575.197 236.474,544.197 260.5,513.5 Z"/></g>
</svg>
