<?xml version="1.0" standalone="no"?>
<!DOCTYPE svg PUBLIC "-//W3C//DTD SVG 20010904//EN"
 "http://www.w3.org/TR/2001/REC-SVG-20010904/DTD/svg10.dtd">
<svg version="1.0" xmlns="http://www.w3.org/2000/svg"
 width="512.000000pt" height="512.000000pt" viewBox="0 0 512.000000 512.000000"
 preserveAspectRatio="xMidYMid meet">
<metadata>
Created by potrace 1.16, written by Peter Selinger 2001-2019
</metadata>
<g transform="translate(0.000000,512.000000) scale(0.100000,-0.100000)"
fill="#000000" stroke="none">
<path d="M2370 5101 c-66 -21 -133 -54 -177 -87 -31 -24 -33 -24 -95 -9 -182
43 -362 -6 -505 -139 -133 -124 -176 -246 -172 -491 1 -82 -1 -202 -5 -265
-13 -188 26 -321 124 -424 77 -81 217 -146 317 -146 27 0 34 -4 39 -27 4 -16
26 -101 49 -191 l43 -162 -47 -39 c-25 -21 -145 -109 -266 -196 -367 -264
-493 -376 -543 -484 -48 -105 -41 -296 20 -546 43 -177 136 -452 166 -486 42
-50 97 -72 192 -77 149 -7 297 46 399 144 30 30 56 52 58 50 13 -13 22 -272
13 -384 -16 -207 -46 -288 -192 -521 -51 -80 -121 -202 -156 -270 -62 -121
-64 -127 -60 -188 4 -70 23 -103 78 -141 l33 -22 1091 2 1091 3 33 23 c18 13
42 42 54 65 17 35 20 52 14 112 -7 88 -41 215 -99 370 -94 253 -95 333 -9 840
141 831 185 1243 153 1432 -21 121 -85 233 -154 269 -15 8 -145 34 -290 59
-230 38 -747 140 -752 147 0 2 -13 33 -27 70 l-26 66 57 59 c67 69 102 146
127 282 16 88 18 92 51 107 60 29 128 100 165 171 139 268 48 608 -197 735
-37 19 -69 43 -75 57 -19 41 -98 138 -141 171 -69 56 -142 80 -239 79 -53 0
-105 -7 -140 -18z m233 -160 c42 -16 118 -99 155 -168 29 -55 39 -64 104 -98
40 -21 88 -52 106 -69 76 -70 114 -208 93 -331 -12 -69 -47 -151 -74 -174 -13
-10 -16 -3 -22 51 -9 84 -39 211 -65 278 -46 117 -95 153 -275 199 -66 17
-149 46 -184 64 -57 28 -70 41 -113 107 -55 86 -56 82 39 127 88 41 159 45
236 14z m-537 -96 c45 -13 53 -21 101 -96 43 -67 51 -85 42 -101 -17 -32 -78
-89 -189 -174 -126 -97 -183 -158 -216 -227 -40 -88 -35 -161 43 -520 5 -27 4
-28 -23 -21 -196 45 -289 229 -240 471 14 69 15 92 5 142 -17 87 -7 223 21
296 39 101 165 209 274 236 52 12 130 10 182 -6z m505 -368 c130 -33 152 -46
178 -106 42 -98 55 -178 55 -331 0 -117 -4 -162 -22 -235 -56 -221 -126 -264
-322 -195 -129 46 -171 37 -186 -37 -9 -43 26 -76 117 -112 79 -31 180 -54
202 -46 8 4 26 -31 52 -100 22 -59 47 -113 57 -121 22 -21 470 -118 761 -165
42 -7 81 -16 87 -19 5 -3 3 -27 -7 -59 -25 -88 -14 -292 22 -400 50 -148 138
-249 231 -267 29 -5 33 -9 29 -33 -3 -14 -18 -123 -35 -241 -17 -118 -51 -334
-75 -480 -60 -359 -75 -482 -75 -609 0 -147 21 -257 79 -414 27 -72 59 -178
72 -235 20 -89 21 -104 9 -112 -16 -11 -2028 -14 -2054 -4 -9 3 -16 13 -16 22
0 22 90 186 193 351 49 79 105 178 124 219 72 155 111 398 98 608 l-7 111 119
5 c197 9 333 66 461 195 l72 73 68 -34 c124 -63 202 -81 337 -80 102 0 132 5
200 27 99 33 182 80 197 112 21 47 -18 115 -66 115 -14 0 -55 -16 -93 -35 -99
-50 -182 -69 -273 -62 -110 9 -245 61 -318 122 -74 62 -127 54 -168 -26 -80
-159 -265 -260 -451 -246 -92 7 -176 44 -234 103 l-43 44 -6 127 c-6 124 -8
131 -57 248 -39 96 -55 123 -77 133 -51 25 -116 -12 -116 -66 0 -16 18 -72 40
-125 35 -84 40 -105 40 -175 l0 -79 -77 -6 c-93 -6 -195 -42 -265 -93 -28 -19
-52 -33 -55 -30 -9 8 -51 163 -79 285 -30 136 -41 287 -25 348 23 83 136 183
522 461 270 195 357 266 365 297 3 14 -12 99 -36 197 -118 489 -171 730 -176
793 -6 67 -5 72 25 112 17 23 96 94 175 158 80 64 158 133 173 154 l27 38 66
-28 c36 -16 109 -39 161 -52z m1225 -1524 c13 -14 34 -57 45 -95 20 -63 21
-83 14 -232 -4 -90 -11 -169 -15 -176 -12 -20 -54 11 -84 62 -73 126 -90 382
-30 449 23 26 41 24 70 -8z m-1982 -1279 c9 -3 16 -16 16 -29 0 -31 -58 -81
-138 -118 -105 -49 -252 -48 -252 2 0 42 126 121 222 140 53 11 131 13 152 5z"/>
<path d="M3225 2125 c-49 -48 -17 -135 49 -135 62 0 96 50 74 112 -19 53 -82
65 -123 23z"/>
<path d="M2109 1941 c-18 -14 -24 -29 -24 -61 0 -32 6 -47 24 -61 33 -27 77
-24 108 7 21 21 24 32 19 62 -10 66 -77 94 -127 53z"/>
<path d="M2774 666 c-35 -15 -44 -32 -44 -80 0 -62 82 -100 133 -62 49 37 34
124 -23 145 -18 6 -33 11 -34 11 -1 -1 -15 -7 -32 -14z"/>
</g>
</svg>
