<?xml version="1.0" standalone="no"?>
<!DOCTYPE svg PUBLIC "-//W3C//DTD SVG 20010904//EN"
 "http://www.w3.org/TR/2001/REC-SVG-20010904/DTD/svg10.dtd">
<svg version="1.0" xmlns="http://www.w3.org/2000/svg"
 width="512.000000pt" height="512.000000pt" viewBox="0 0 512.000000 512.000000"
 preserveAspectRatio="xMidYMid meet">
<metadata>
Created by potrace 1.16, written by Peter Selinger 2001-2019
</metadata>
<g transform="translate(0.000000,512.000000) scale(0.100000,-0.100000)"
fill="#000000" stroke="none">
<path d="M3806 5087 c-92 -99 -406 -712 -406 -793 0 -12 -5 -14 -17 -8 -75 32
-321 107 -423 128 -191 38 -289 48 -485 49 -210 0 -357 -18 -550 -68 -704
-181 -1295 -728 -1529 -1415 -67 -198 -73 -263 -27 -304 30 -27 90 -31 128 -7
26 17 36 33 53 93 147 517 461 934 910 1211 330 203 764 307 1154 277 152 -12
327 -44 471 -85 114 -33 290 -102 302 -118 5 -7 16 -32 23 -55 21 -68 90 -162
156 -215 l60 -48 -23 -102 c-60 -263 -121 -878 -124 -1236 l0 -86 -72 -45
c-39 -25 -117 -90 -173 -145 -160 -157 -263 -335 -321 -552 -24 -91 -26 -120
-33 -393 -8 -312 -12 -342 -63 -454 -72 -156 -212 -297 -369 -371 -122 -58
-184 -70 -348 -69 -168 1 -241 18 -429 102 -418 187 -770 526 -975 939 -95
191 -148 353 -185 571 -26 152 -40 172 -121 172 -33 0 -48 -6 -72 -31 -30 -30
-31 -32 -25 -104 24 -278 171 -678 345 -940 166 -248 376 -457 630 -628 114
-76 352 -195 473 -235 248 -82 498 -83 722 -2 242 88 473 312 565 550 50 128
54 162 62 470 8 331 16 380 89 536 55 117 112 197 210 294 l86 85 6 -295 c18
-814 111 -1458 241 -1663 44 -69 89 -97 158 -97 103 0 164 68 224 251 70 215
120 545 157 1034 5 77 13 328 16 558 l6 417 81 0 c95 1 150 12 220 45 150 71
238 213 266 429 21 155 -20 353 -107 518 -97 186 -281 401 -466 545 l-28 22
41 53 c48 63 78 138 93 230 9 56 7 82 -6 146 -34 154 -128 360 -303 661 -113
195 -127 211 -189 211 -41 0 -52 -5 -79 -33z m213 -520 c155 -299 182 -403
133 -512 -101 -224 -406 -239 -525 -27 -46 82 -47 154 -7 265 34 93 147 322
219 446 l43 74 30 -47 c16 -26 64 -116 107 -199z m-79 -936 c44 -173 117 -727
98 -747 -4 -3 -75 -6 -158 -6 -83 0 -154 3 -158 6 -14 14 37 449 74 636 31
153 27 146 84 146 49 0 50 -1 60 -35z m341 -123 c130 -128 217 -244 279 -373
66 -135 84 -217 78 -347 -7 -155 -52 -244 -150 -292 -42 -21 -66 -26 -129 -26
l-77 0 -6 73 c-3 39 -8 124 -11 187 -15 301 -68 752 -101 863 -10 34 14 16
117 -85z m-216 -975 c10 -175 -1 -1036 -14 -1223 -26 -346 -62 -643 -102 -825
-23 -105 -60 -225 -69 -225 -9 0 -56 156 -74 245 -49 236 -84 565 -106 995
-12 220 -14 887 -4 1057 l7 112 177 -1 178 0 7 -135z"/>
<path d="M2443 3941 c-105 -39 -180 -107 -231 -211 -25 -50 -27 -65 -27 -170
0 -107 2 -119 29 -175 38 -77 114 -153 191 -191 56 -27 68 -29 175 -29 107 0
119 2 175 29 77 38 153 114 191 191 27 56 29 68 29 175 0 107 -2 119 -29 175
-38 77 -114 153 -191 190 -52 26 -73 30 -160 33 -79 2 -111 -2 -152 -17z m225
-210 c67 -34 102 -93 102 -171 0 -111 -79 -190 -190 -190 -111 0 -190 79 -190
190 0 111 77 189 188 190 33 0 67 -7 90 -19z"/>
<path d="M1343 3441 c-105 -39 -180 -107 -231 -211 -25 -50 -27 -65 -27 -170
0 -107 2 -119 29 -175 38 -77 114 -153 191 -191 56 -27 68 -29 175 -29 107 0
119 2 175 29 77 38 153 114 191 191 27 56 29 68 29 175 0 107 -2 119 -29 175
-38 77 -114 153 -191 190 -52 26 -73 30 -160 33 -79 2 -111 -2 -152 -17z m225
-210 c67 -34 102 -93 102 -171 0 -111 -79 -190 -190 -190 -111 0 -190 79 -190
190 0 111 77 189 188 190 33 0 67 -7 90 -19z"/>
<path d="M306 2434 c-21 -21 -26 -36 -26 -74 0 -66 34 -100 100 -100 66 0 100
34 100 100 0 66 -34 100 -100 100 -38 0 -53 -5 -74 -26z"/>
<path d="M1043 2241 c-105 -39 -180 -107 -231 -211 -25 -50 -27 -65 -27 -170
0 -107 2 -119 29 -175 38 -77 114 -153 191 -191 56 -27 68 -29 175 -29 107 0
119 2 175 29 77 38 153 114 191 191 27 56 29 68 29 175 0 107 -2 119 -29 175
-38 77 -114 153 -191 190 -52 26 -73 30 -160 33 -79 2 -111 -2 -152 -17z m225
-210 c67 -34 102 -93 102 -171 0 -111 -79 -190 -190 -190 -111 0 -190 79 -190
190 0 111 77 189 188 190 33 0 67 -7 90 -19z"/>
<path d="M1943 1441 c-105 -39 -180 -107 -231 -211 -25 -50 -27 -65 -27 -170
0 -107 2 -119 29 -175 38 -77 114 -153 191 -191 56 -27 68 -29 175 -29 107 0
119 2 175 29 77 38 153 114 191 191 27 56 29 68 29 175 0 107 -2 119 -29 175
-38 77 -114 153 -191 190 -52 26 -73 30 -160 33 -79 2 -111 -2 -152 -17z m225
-210 c67 -34 102 -93 102 -171 0 -111 -79 -190 -190 -190 -111 0 -190 79 -190
190 0 111 77 189 188 190 33 0 67 -7 90 -19z"/>
</g>
</svg>
