<?xml version="1.0" standalone="no"?>
<!DOCTYPE svg PUBLIC "-//W3C//DTD SVG 20010904//EN"
 "http://www.w3.org/TR/2001/REC-SVG-20010904/DTD/svg10.dtd">
<svg version="1.0" xmlns="http://www.w3.org/2000/svg"
 width="512.000000pt" height="512.000000pt" viewBox="0 0 512.000000 512.000000"
 preserveAspectRatio="xMidYMid meet">

<g transform="translate(0.000000,512.000000) scale(0.100000,-0.100000)"
fill="#000000" stroke="none">
<path d="M3525 5087 c-113 -54 -282 -285 -355 -485 -80 -220 -96 -451 -53
-801 6 -49 5 -53 -13 -47 -49 15 -271 47 -402 58 -420 34 -762 -75 -1031 -327
-193 -182 -310 -393 -362 -652 -21 -105 -21 -105 -2 -131 31 -41 67 -50 101
-25 23 17 30 34 45 109 35 179 95 317 196 451 230 305 569 451 996 429 131 -7
459 -57 493 -75 14 -7 24 -34 36 -93 20 -105 21 -102 -11 -95 -399 85 -585
103 -783 72 -215 -32 -369 -112 -515 -266 -162 -171 -235 -346 -251 -606 -11
-179 17 -380 121 -836 79 -353 102 -480 117 -665 27 -324 -43 -597 -210 -817
-79 -105 -111 -135 -153 -141 -51 -9 -99 33 -99 85 0 31 9 48 56 102 108 125
175 254 211 413 12 52 17 117 16 246 0 206 -17 315 -113 736 -71 311 -107 503
-116 618 -11 147 -26 176 -92 176 -49 0 -67 -31 -64 -109 3 -78 28 -269 47
-361 7 -36 12 -66 10 -68 -2 -2 -46 2 -97 9 -51 7 -176 13 -278 13 -152 0
-204 -5 -288 -23 -232 -49 -415 -143 -583 -298 -82 -77 -99 -112 -99 -211 0
-73 3 -84 33 -128 43 -65 117 -104 196 -104 68 0 124 24 183 78 24 21 65 56
92 76 l49 37 438 -437 438 -437 -32 -46 c-17 -25 -50 -67 -74 -92 -23 -25 -51
-65 -62 -90 -48 -104 -12 -233 83 -296 44 -30 55 -33 128 -33 100 0 135 17
218 107 265 289 361 656 298 1146 -6 48 -9 89 -7 91 2 2 65 -7 139 -20 625
-107 1040 0 1369 352 248 265 355 604 323 1020 -10 131 -42 354 -59 408 -5 18
-1 19 48 12 134 -16 309 -28 358 -24 62 6 91 31 91 79 0 50 -30 69 -110 69
-73 0 -329 25 -390 38 -34 8 -35 8 -56 100 -12 51 -18 92 -13 92 5 0 66 -10
136 -22 165 -28 431 -30 539 -5 161 37 288 101 408 206 58 51 76 61 107 61 52
0 94 -48 85 -99 -13 -84 -247 -248 -444 -311 -101 -33 -128 -58 -117 -109 4
-21 17 -37 37 -47 28 -15 36 -14 92 1 229 64 510 256 566 387 64 148 -39 314
-201 326 -78 6 -136 -17 -204 -78 -28 -25 -72 -61 -96 -78 l-46 -31 -437 438
-437 438 37 49 c20 27 56 69 79 94 148 161 63 402 -147 417 -52 3 -72 0 -113
-20z m154 -153 c25 -20 31 -34 31 -63 0 -31 -9 -48 -52 -97 -183 -209 -254
-449 -228 -769 14 -171 36 -297 114 -648 86 -382 115 -560 123 -737 13 -316
-62 -564 -233 -779 -243 -304 -588 -439 -1029 -403 -141 12 -399 53 -441 71
-17 7 -24 27 -38 96 -10 48 -15 89 -13 91 3 3 69 -8 148 -25 224 -45 312 -56
479 -56 173 0 258 14 387 65 188 72 368 238 460 425 71 142 96 266 95 465 0
189 -23 336 -111 736 -82 370 -105 500 -121 679 -31 332 38 606 209 833 109
144 157 169 220 116z m326 -934 c214 -214 387 -391 385 -393 -10 -9 -115 -27
-193 -33 -96 -8 -273 8 -442 39 l-120 22 -22 115 c-29 157 -47 357 -39 449 7
89 26 191 35 191 3 0 181 -175 396 -390z m-1120 -695 c77 -13 187 -35 244 -48
l105 -23 23 -105 c48 -208 100 -579 82 -579 -2 0 -182 178 -399 396 l-395 396
100 -7 c55 -3 163 -17 240 -30z m-47 -468 l483 -483 -25 -80 c-25 -77 -79
-181 -114 -216 -16 -17 -47 12 -581 546 l-564 564 44 32 c67 49 195 106 269
119 3 1 222 -216 488 -482z m204 -919 c-35 -35 -139 -89 -217 -114 l-79 -25
-483 483 -483 483 14 53 c18 68 65 165 106 221 l32 44 564 -564 c534 -534 563
-565 546 -581z m-882 236 l395 -396 -95 6 c-52 4 -138 13 -190 21 -113 18
-383 74 -397 84 -11 7 -66 257 -88 401 -15 100 -31 280 -24 280 2 0 182 -178
399 -396z m-890 -319 c57 -8 107 -18 111 -23 14 -15 46 -182 35 -182 -6 0 -65
9 -131 20 -421 70 -715 8 -949 -199 -58 -52 -75 -61 -107 -61 -29 0 -43 6 -63
31 -53 63 -28 111 116 219 147 111 337 185 533 209 100 12 317 5 455 -14z
m-105 -321 c72 -8 168 -23 215 -32 l85 -18 22 -114 c30 -164 47 -348 39 -445
-6 -80 -24 -185 -33 -195 -4 -5 -783 771 -783 782 0 3 33 11 73 18 39 6 79 13
87 15 42 8 179 3 295 -11z"/>
</g>
</svg>
