<?xml version="1.0" standalone="no"?>
<!DOCTYPE svg PUBLIC "-//W3C//DTD SVG 20010904//EN"
 "http://www.w3.org/TR/2001/REC-SVG-20010904/DTD/svg10.dtd">
<svg version="1.0" xmlns="http://www.w3.org/2000/svg"
 width="512.000000pt" height="512.000000pt" viewBox="0 0 512.000000 512.000000"
 preserveAspectRatio="xMidYMid meet">
<metadata>
Created by potrace 1.16, written by Peter Selinger 2001-2019
</metadata>
<g transform="translate(0.000000,512.000000) scale(0.100000,-0.100000)"
fill="#000000" stroke="none">
<path d="M2271 5076 c-53 -19 -111 -74 -137 -130 -19 -40 -24 -68 -24 -133 l0
-81 -237 -4 c-222 -3 -241 -5 -289 -26 -63 -29 -116 -81 -146 -147 -22 -48
-23 -60 -26 -376 -3 -318 -3 -326 18 -352 17 -21 30 -27 61 -27 63 0 79 24 79
119 l0 80 58 -35 c66 -40 130 -60 225 -69 l67 -7 0 -49 c0 -62 31 -99 83 -99
51 0 77 33 77 98 l0 52 480 0 480 0 0 -53 c0 -64 27 -97 79 -97 50 0 81 37 81
99 l0 49 68 7 c94 9 158 29 225 69 l57 35 0 -297 c0 -267 -2 -301 -19 -338
-36 -78 23 -74 -971 -74 -804 0 -885 1 -917 17 -50 24 -73 77 -73 176 0 93
-16 117 -79 117 -31 0 -44 -6 -61 -27 -20 -26 -22 -36 -18 -128 7 -148 48
-224 150 -281 l53 -29 945 0 945 0 53 29 c57 32 102 81 130 143 15 35 17 89
17 613 0 542 -1 578 -19 624 -25 66 -85 128 -149 157 -49 22 -67 24 -289 27
l-238 4 0 81 c0 65 -5 93 -24 133 -27 59 -90 116 -145 132 -54 17 -524 15
-570 -2z m550 -175 c27 -27 29 -35 29 -100 l0 -71 -290 0 -290 0 0 71 c0 65 2
73 29 100 l29 29 232 0 232 0 29 -29z m666 -357 c51 -37 65 -78 60 -174 -3
-57 -11 -102 -25 -132 -45 -102 -141 -171 -258 -183 l-61 -7 -5 63 c-4 49 -9
66 -27 80 -31 26 -79 24 -108 -3 -19 -18 -23 -32 -23 -80 l0 -58 -480 0 -480
0 0 57 c0 69 -25 103 -76 103 -54 0 -77 -28 -82 -99 l-5 -63 -61 7 c-116 12
-213 81 -258 182 -22 49 -34 162 -24 216 9 47 49 94 89 106 19 6 396 9 914 8
875 -2 882 -2 910 -23z"/>
<path d="M72 3390 c-18 -11 -41 -34 -52 -52 -19 -32 -20 -52 -20 -848 l0 -815
29 -60 c15 -34 43 -73 61 -89 18 -15 177 -113 354 -219 320 -191 321 -192 387
-195 85 -5 131 10 187 62 53 48 50 33 -11 -57 -27 -40 -49 -86 -56 -117 -35
-162 79 -313 246 -324 50 -4 58 -7 64 -28 28 -107 129 -186 244 -191 55 -2 55
-2 65 -39 26 -96 137 -179 242 -181 29 -1 69 2 89 6 34 7 37 5 49 -23 15 -37
81 -97 129 -118 60 -26 158 -21 223 11 30 15 63 36 72 46 17 19 20 18 119 -42
123 -74 155 -86 232 -86 113 -1 215 72 250 180 l16 48 41 -15 c66 -23 156 -18
216 12 76 38 141 127 142 194 0 24 2 25 78 25 66 0 84 4 124 28 61 36 105 90
124 154 l15 52 30 -11 c43 -15 137 -4 186 20 50 26 118 102 134 149 18 54 8
170 -19 222 -24 46 -24 46 20 71 13 8 26 4 53 -15 45 -30 88 -39 163 -33 47 3
73 14 154 62 54 31 102 66 108 76 28 53 -8 120 -64 120 -16 0 -69 -23 -118
-51 -127 -73 -143 -70 -200 30 -18 31 -160 269 -315 530 -156 261 -286 484
-289 497 -4 15 3 31 23 52 23 26 1306 799 1357 818 15 6 16 -52 14 -762 -3
-901 11 -805 -137 -894 -51 -31 -97 -63 -102 -71 -16 -26 -10 -85 11 -104 35
-32 78 -24 173 34 120 72 145 96 178 166 l29 60 0 815 c0 796 -1 816 -20 848
-30 48 -75 72 -140 72 -55 0 -61 -3 -730 -403 -371 -221 -691 -412 -711 -425
-74 -45 -123 -165 -101 -244 l10 -37 -47 -10 c-59 -12 -95 -4 -244 54 -152 59
-198 60 -417 5 l-159 -40 -72 35 c-149 71 -230 69 -436 -11 -149 -58 -206 -61
-289 -18 -56 29 -56 29 -59 81 -5 63 -28 116 -70 155 -17 17 -343 216 -725
444 -690 411 -695 414 -750 414 -37 0 -65 -6 -88 -20z m767 -541 c361 -215
669 -404 684 -421 21 -22 27 -37 23 -53 -7 -28 -611 -1051 -639 -1082 -40 -45
-63 -35 -397 164 -255 153 -318 195 -334 223 -21 34 -21 49 -24 804 -2 721 -2
768 14 762 10 -4 313 -182 673 -397z m1535 -630 l24 -11 -36 -67 -37 -66 -3
-260 c-3 -258 -3 -261 20 -294 42 -62 71 -76 156 -76 67 0 86 4 142 32 75 37
118 77 157 149 l28 51 530 -313 c292 -173 540 -326 553 -340 33 -37 30 -95 -7
-136 -25 -28 -36 -33 -73 -32 -38 0 -87 27 -408 219 -397 237 -420 247 -461
196 -23 -28 -24 -69 -4 -97 8 -12 135 -92 282 -179 147 -87 280 -170 295 -183
51 -46 44 -126 -14 -166 -49 -35 -75 -24 -376 154 -304 180 -331 191 -372 150
-13 -13 -20 -33 -20 -60 0 -48 -4 -45 260 -201 102 -60 193 -119 203 -130 37
-45 16 -129 -40 -158 -46 -24 -77 -12 -283 109 -118 70 -215 120 -230 120 -36
0 -67 -25 -75 -58 -11 -52 8 -77 103 -131 116 -68 137 -90 137 -148 0 -38 -5
-49 -33 -74 -50 -45 -86 -40 -198 27 -52 31 -97 61 -100 65 -3 5 3 23 13 41
22 43 23 159 1 209 -25 58 -84 115 -141 139 l-52 22 0 86 c0 103 -19 147 -89
209 -50 44 -101 63 -167 63 -44 0 -44 0 -62 51 -23 64 -87 130 -150 154 -72
27 -180 18 -242 -20 l-49 -30 -46 46 c-74 74 -169 96 -279 63 -50 -14 -91 -12
-91 6 0 6 434 745 485 826 l14 21 58 -29 c118 -58 230 -56 395 9 168 65 215
72 282 42z m733 -35 c65 -26 145 -50 178 -54 62 -8 164 3 197 21 11 6 21 9 23
7 9 -10 505 -851 503 -853 -42 -26 -110 -65 -117 -65 -5 0 -255 146 -557 325
-368 218 -558 325 -577 325 -44 0 -77 -40 -77 -92 0 -93 -84 -189 -167 -192
l-38 -1 0 205 0 205 27 47 c38 64 77 84 241 128 191 51 217 51 364 -6z m-1736
-1000 c36 -18 63 -75 54 -113 -9 -36 -132 -206 -158 -219 -43 -20 -59 -22 -92
-8 -18 8 -41 27 -51 41 -32 49 -22 86 52 190 88 124 126 145 195 109z m435
-62 c55 -44 57 -100 7 -173 -104 -152 -217 -301 -240 -316 -14 -9 -41 -16 -60
-16 -67 2 -122 88 -92 144 21 42 233 333 258 357 30 27 96 30 127 4z m321
-237 c57 -57 48 -82 -99 -287 -140 -195 -169 -219 -234 -198 -21 7 -43 24 -55
44 -36 59 -29 79 101 262 141 199 156 214 212 214 33 0 47 -7 75 -35z m196
-345 c34 -27 51 -79 37 -114 -21 -55 -103 -158 -138 -173 -67 -28 -142 23
-142 97 0 41 61 142 112 186 37 30 95 32 131 4z"/>
</g>
</svg>
