<?xml version="1.0" standalone="no"?>
<!DOCTYPE svg PUBLIC "-//W3C//DTD SVG 20010904//EN"
 "http://www.w3.org/TR/2001/REC-SVG-20010904/DTD/svg10.dtd">
<svg version="1.0" xmlns="http://www.w3.org/2000/svg"
 width="512.000000pt" height="512.000000pt" viewBox="0 0 512.000000 512.000000"
 preserveAspectRatio="xMidYMid meet">

<g transform="translate(0.000000,512.000000) scale(0.100000,-0.100000)"
fill="#000000" stroke="none">
<path d="M2145 5108 c-204 -23 -434 -92 -631 -189 -143 -70 -169 -94 -169
-151 0 -33 6 -45 33 -69 19 -17 44 -29 60 -29 15 0 84 28 152 63 143 72 301
127 455 156 119 24 175 26 175 10 0 -21 -60 -220 -74 -247 -21 -40 -58 -78
-189 -197 -123 -112 -153 -155 -163 -228 -19 -138 109 -291 286 -341 53 -14
630 -66 742 -66 99 0 149 23 239 106 109 102 82 112 342 -119 189 -167 239
-202 314 -217 65 -14 135 1 225 46 28 14 54 22 58 17 5 -4 15 -44 24 -88 77
-389 28 -756 -149 -1110 -85 -169 -174 -293 -313 -433 l-112 -114 -78 74
c-149 142 -181 148 -579 113 -166 -14 -324 -25 -350 -23 l-48 3 -37 70 c-21
39 -37 78 -35 89 1 14 31 29 122 63 66 24 140 59 165 77 70 51 94 107 152 353
69 299 68 369 -10 455 -67 75 -96 83 -267 81 -214 -3 -318 -16 -385 -50 -72
-37 -109 -88 -160 -220 -54 -138 -76 -180 -98 -192 -11 -6 -71 -20 -136 -32
-110 -21 -117 -21 -135 -5 -11 10 -40 77 -66 149 -60 167 -98 240 -147 279
-71 56 -121 67 -402 94 -144 13 -269 24 -279 24 -15 0 -16 7 -11 58 21 216 84
429 181 622 35 68 63 137 63 152 0 16 -12 41 -29 60 -24 27 -36 33 -69 33 -57
0 -81 -26 -151 -169 -301 -610 -260 -1316 110 -1886 55 -85 59 -96 44 -105
-64 -37 -103 -77 -133 -135 -32 -61 -34 -70 -30 -145 6 -107 35 -161 142 -258
192 -173 341 -275 561 -383 232 -113 484 -189 720 -214 55 -6 119 -13 143 -16
l42 -5 0 -134 0 -134 -387 -3 -388 -3 -57 -28 c-64 -32 -111 -80 -142 -146
-18 -40 -21 -69 -24 -224 l-4 -177 35 -35 35 -35 1226 0 c1344 0 1270 -3 1295
59 9 20 12 80 9 198 -3 145 -6 174 -24 214 -31 66 -78 114 -142 146 l-57 28
-387 3 -388 3 0 163 0 163 41 7 c64 10 295 89 405 139 638 288 1122 870 1288
1548 47 194 60 317 60 549 0 243 -14 363 -68 575 -98 379 -297 736 -567 1016
-92 95 -132 114 -244 114 -82 0 -95 -3 -145 -31 -49 -27 -93 -73 -126 -129 -9
-17 -18 -13 -105 44 -361 238 -823 348 -1254 299z m505 -215 c449 -72 864
-343 1125 -733 57 -86 155 -271 155 -294 0 -7 -36 -30 -81 -51 -78 -36 -82
-37 -112 -23 -18 9 -77 56 -133 104 -55 49 -140 124 -190 168 -117 103 -169
130 -254 130 -89 0 -143 -27 -223 -108 -78 -80 -40 -77 -477 -40 -252 21 -325
30 -363 46 -50 22 -107 77 -107 105 0 9 39 52 88 97 152 139 219 213 245 268
15 29 44 116 67 193 22 77 42 146 45 153 5 14 58 10 215 -15z m1207 -205 c69
-64 189 -211 259 -319 254 -391 374 -866 335 -1322 -65 -741 -498 -1378 -1162
-1709 -214 -106 -488 -184 -738 -208 -537 -52 -1112 125 -1526 472 -136 113
-175 159 -175 206 0 60 46 97 117 93 13 0 56 -32 100 -72 521 -476 1234 -629
1898 -408 588 196 1047 675 1220 1274 52 181 68 302 68 525 0 165 -4 227 -21
320 -69 375 -226 694 -481 973 -40 44 -72 87 -72 100 -4 71 33 117 93 117 31
0 47 -8 85 -42z m-2960 -1598 c126 -11 245 -22 266 -26 69 -11 88 -38 151
-213 47 -129 66 -170 98 -206 83 -94 153 -109 339 -72 202 40 268 87 329 233
16 41 44 107 61 148 23 56 36 77 57 85 15 6 92 16 172 21 213 14 217 14 236
-15 15 -23 13 -36 -35 -252 -38 -168 -57 -233 -72 -249 -12 -13 -67 -39 -123
-60 -167 -61 -208 -89 -240 -166 -29 -69 -21 -134 28 -235 74 -152 135 -202
257 -211 36 -2 205 8 376 23 l311 28 44 -21 c24 -12 63 -42 87 -66 l43 -44
-43 -28 c-71 -45 -237 -121 -337 -154 -492 -164 -1035 -96 -1467 184 -405 263
-693 712 -755 1176 -6 47 -13 97 -15 113 -3 15 -2 27 0 27 3 0 107 -9 232 -20z
m1763 -2295 l0 -145 -100 0 -100 0 0 134 0 135 43 5 c23 3 60 7 82 9 22 2 48
4 58 5 15 2 17 -11 17 -143z m949 -359 c39 -21 51 -56 51 -151 l0 -85 -1100 0
-1100 0 0 91 c0 90 0 91 34 125 l34 34 1026 0 c869 0 1031 -2 1055 -14z"/>
<path d="M1019 4561 c-49 -49 -35 -126 28 -156 85 -41 169 43 128 128 -30 63
-107 77 -156 28z"/>
</g>
</svg>
