<?xml version="1.0" standalone="no"?>
<!DOCTYPE svg PUBLIC "-//W3C//DTD SVG 20010904//EN"
 "http://www.w3.org/TR/2001/REC-SVG-20010904/DTD/svg10.dtd">
<svg version="1.0" xmlns="http://www.w3.org/2000/svg"
 width="512.000000pt" height="512.000000pt" viewBox="0 0 512.000000 512.000000"
 preserveAspectRatio="xMidYMid meet">

<g transform="translate(0.000000,512.000000) scale(0.100000,-0.100000)"
fill="#000000" stroke="none">
<path d="M3599 4471 c-21 -17 -24 -30 -27 -100 -5 -95 8 -134 47 -151 33 -13
75 0 90 29 6 11 11 60 11 110 0 85 -1 91 -26 110 -33 26 -65 27 -95 2z"/>
<path d="M3029 4240 c-9 -5 -22 -23 -28 -39 -10 -24 -10 -34 2 -58 21 -40 110
-121 142 -129 40 -10 79 23 83 70 3 33 -2 42 -61 101 -67 66 -98 79 -138 55z"/>
<path d="M4128 4182 c-77 -77 -85 -106 -43 -147 41 -42 70 -34 147 43 77 77
85 106 43 147 -41 42 -70 34 -147 -43z"/>
<path d="M3513 4115 c-91 -25 -174 -74 -244 -144 -78 -79 -123 -162 -146 -278
-60 -289 152 -582 453 -625 165 -24 327 33 449 156 89 90 135 179 116 224 -7
17 -25 35 -40 42 -42 17 -76 -1 -105 -57 -41 -81 -100 -139 -183 -180 -69 -34
-82 -37 -162 -37 -98 0 -165 21 -235 75 -100 78 -149 178 -150 310 -1 79 2 90
37 161 43 87 98 142 186 185 50 25 67 28 156 28 89 0 107 -3 160 -28 69 -32
147 -104 177 -162 31 -62 57 -85 94 -85 35 0 74 37 74 70 0 37 -65 143 -123
203 -105 105 -233 158 -383 156 -44 0 -103 -7 -131 -14z"/>
<path d="M2781 3652 c-34 -26 -31 -79 4 -110 26 -22 35 -24 118 -20 79 3 91 6
108 27 26 32 24 73 -4 99 -20 19 -35 22 -114 22 -72 0 -95 -4 -112 -18z"/>
<path d="M4297 3659 c-28 -16 -40 -58 -27 -90 17 -39 56 -52 151 -47 70 3 83
6 100 27 25 30 24 62 -2 95 -19 25 -25 26 -112 26 -51 0 -100 -5 -110 -11z"/>
<path d="M2535 3260 c-17 -5 -42 -22 -57 -37 -14 -16 -195 -275 -402 -578
-208 -302 -380 -551 -384 -552 -4 -1 -65 82 -137 184 -75 107 -143 194 -160
205 -48 29 -99 24 -140 -14 -19 -18 -289 -404 -600 -858 -482 -703 -570 -826
-595 -833 -59 -15 -78 -80 -35 -122 l24 -25 2511 0 2511 0 24 25 c14 13 25 36
25 50 0 30 -40 75 -67 75 -12 1 -160 202 -463 632 -245 347 -458 646 -473 664
-41 48 -87 61 -135 37 -29 -14 -60 -51 -147 -180 -60 -89 -113 -161 -117 -160
-4 1 -64 83 -135 182 -123 173 -129 180 -165 183 -27 2 -43 -3 -57 -17 -46
-46 -47 -46 390 -664 227 -320 427 -603 446 -630 l35 -47 -242 2 -243 3 -369
854 c-202 470 -367 855 -366 857 2 1 30 -36 63 -83 33 -47 70 -96 82 -109 44
-48 123 -17 123 49 0 26 -57 112 -298 451 -163 231 -308 427 -322 437 -31 23
-86 31 -125 19z m549 -1316 c273 -633 496 -1153 496 -1157 0 -4 -217 -7 -483
-7 l-482 0 -410 580 c-226 318 -410 586 -410 595 0 20 778 1155 786 1147 4 -4
230 -525 503 -1158z m-1420 -398 c180 -417 325 -760 323 -762 -2 -2 -389 -3
-860 -2 l-856 3 527 767 c289 422 529 764 533 760 3 -4 153 -348 333 -766z
m2606 -191 c133 -308 244 -564 247 -568 3 -4 -20 -7 -51 -5 l-55 3 -300 424
-300 424 101 149 c56 81 105 145 109 141 4 -5 116 -260 249 -568z m-2181 -91
l338 -479 -130 -3 c-72 -1 -134 1 -138 5 -4 4 -96 213 -204 463 -207 477 -220
508 -211 499 3 -3 158 -221 345 -485z m2556 -190 l205 -289 -81 -3 c-45 -2
-83 -1 -86 2 -2 2 -62 138 -133 301 -71 164 -124 293 -119 288 5 -5 101 -139
214 -299z"/>
<path d="M2313 2310 c-44 -18 -57 -86 -23 -120 19 -19 33 -20 244 -20 l225 0
20 26 c12 15 21 33 21 40 0 26 -23 62 -47 73 -29 13 -407 14 -440 1z"/>
<path d="M2521 1994 c-24 -30 -26 -43 -10 -77 17 -37 50 -47 159 -47 109 0
142 10 159 47 16 34 14 47 -10 77 -20 26 -22 26 -149 26 -127 0 -129 0 -149
-26z"/>
<path d="M2431 1530 c-52 -22 -65 -70 -30 -114 20 -26 22 -26 149 -26 127 0
129 0 149 26 27 35 26 57 -3 91 -23 27 -28 28 -133 30 -59 2 -119 -2 -132 -7z"/>
<path d="M1083 1530 c-32 -13 -56 -55 -48 -82 18 -58 19 -58 262 -58 210 0
224 1 243 20 25 25 26 71 1 101 -19 24 -22 24 -228 26 -114 1 -218 -2 -230 -7z"/>
<path d="M1290 1220 c-30 -30 -27 -83 6 -109 23 -18 41 -21 139 -21 98 0 116
3 139 21 33 26 36 79 6 109 -18 18 -33 20 -145 20 -112 0 -127 -2 -145 -20z"/>
<path d="M3061 3116 c-72 -72 -82 -109 -43 -148 39 -39 76 -29 148 43 53 52
64 69 64 96 0 20 -8 41 -20 53 -12 12 -33 20 -53 20 -27 0 -44 -11 -96 -64z"/>
<path d="M4081 3154 c-32 -41 -26 -67 31 -130 66 -71 106 -91 147 -70 16 9 31
23 35 31 16 42 5 67 -57 131 -55 55 -68 64 -99 64 -28 0 -42 -7 -57 -26z"/>
<path d="M3595 2955 c-23 -22 -25 -32 -25 -109 0 -74 3 -88 23 -110 32 -36 74
-39 107 -6 17 17 20 33 20 113 0 85 -2 96 -23 115 -31 29 -72 28 -102 -3z"/>
</g>
</svg>
