<?xml version="1.0" standalone="no"?>
<!DOCTYPE svg PUBLIC "-//W3C//DTD SVG 20010904//EN"
 "http://www.w3.org/TR/2001/REC-SVG-20010904/DTD/svg10.dtd">
<svg version="1.0" xmlns="http://www.w3.org/2000/svg"
 width="512.000000pt" height="512.000000pt" viewBox="0 0 512.000000 512.000000"
 preserveAspectRatio="xMidYMid meet">

<g transform="translate(0.000000,512.000000) scale(0.100000,-0.100000)"
fill="#000000" stroke="none">
<path d="M124 5114 c-38 -9 -103 -72 -114 -112 -14 -53 -14 -4850 1 -4889 14
-38 57 -83 96 -99 27 -12 419 -14 2445 -14 1621 0 2425 3 2450 10 51 14 105
79 114 136 14 94 165 -65 -2415 2517 -1318 1319 -2413 2409 -2433 2423 -37 26
-99 38 -144 28z m269 -507 c-52 -54 -55 -61 -50 -95 8 -46 38 -72 84 -72 27 0
45 10 87 50 29 28 58 50 63 50 6 0 56 -49 111 -108 l101 -109 -52 -51 c-45
-46 -52 -57 -52 -93 0 -51 30 -79 83 -79 30 0 45 9 89 52 l53 52 110 -109 109
-109 -49 -52 c-27 -28 -52 -63 -55 -77 -15 -58 54 -118 111 -97 13 5 46 30 72
54 l48 45 109 -109 109 -110 -51 -52 c-54 -55 -62 -75 -50 -120 9 -34 59 -62
94 -53 14 3 49 28 77 55 l52 49 109 -109 109 -109 -52 -55 c-42 -44 -52 -61
-52 -89 0 -46 26 -76 72 -84 34 -5 41 -2 95 50 l59 56 109 -109 109 -109 -52
-55 c-62 -65 -70 -109 -27 -151 41 -42 77 -34 144 30 l57 54 109 -109 108
-109 -51 -56 c-61 -67 -69 -109 -27 -150 41 -42 83 -34 150 27 l56 51 109
-108 109 -109 -54 -57 c-64 -67 -72 -103 -30 -144 42 -43 86 -35 151 27 l55
52 109 -109 109 -109 -56 -59 c-52 -54 -55 -61 -50 -95 8 -46 38 -72 84 -72
28 0 45 10 89 52 l55 52 109 -109 109 -109 -49 -52 c-27 -28 -52 -63 -55 -77
-9 -35 19 -85 53 -94 45 -12 65 -4 120 50 l52 51 110 -109 109 -109 -45 -48
c-24 -26 -49 -59 -54 -72 -21 -57 39 -126 97 -111 14 3 49 28 77 55 l52 49
109 -109 109 -110 -52 -53 c-43 -44 -52 -59 -52 -89 0 -53 28 -83 79 -83 36 0
47 7 94 53 l52 52 110 -110 109 -109 -52 -55 c-62 -65 -70 -109 -27 -151 41
-41 77 -34 144 30 l57 54 139 -139 140 -140 -2388 0 -2387 0 0 2387 0 2388
140 -140 139 -139 -56 -59z"/>
<path d="M945 3153 c-38 -10 -64 -35 -80 -76 -14 -38 -15 -152 -13 -1072 l3
-1030 23 -37 c13 -20 40 -47 60 -60 l37 -23 1030 -3 c920 -2 1034 -1 1072 13
67 26 98 96 69 157 -19 40 -2105 2128 -2126 2128 -8 0 -24 2 -35 4 -11 2 -29
2 -40 -1z m1027 -1180 c516 -516 938 -941 938 -946 0 -4 -424 -6 -942 -5
l-943 3 -3 943 c-1 518 1 942 5 942 5 0 430 -422 945 -937z"/>
<path d="M2236 5104 c-146 -33 -264 -94 -368 -192 -211 -198 -293 -488 -218
-761 61 -219 201 -387 405 -486 114 -56 203 -77 330 -77 396 0 713 278 765
675 49 368 -198 732 -565 831 -88 24 -264 29 -349 10z m278 -169 c144 -30 291
-130 372 -252 21 -31 51 -96 67 -143 49 -142 38 -319 -28 -449 -80 -158 -230
-279 -400 -320 -70 -18 -210 -15 -286 4 -273 71 -467 340 -445 619 12 151 69
271 181 382 145 144 340 201 539 159z"/>
<path d="M2349 4765 c-39 -21 -49 -63 -49 -201 l0 -124 -125 0 c-147 0 -187
-11 -203 -59 -13 -36 -8 -56 21 -88 19 -22 28 -23 163 -23 l142 0 4 -144 c3
-137 4 -146 27 -170 32 -34 88 -36 119 -3 20 21 22 35 24 167 l3 145 146 3
c136 2 147 4 167 25 24 26 29 51 19 90 -12 45 -56 57 -207 57 l-130 0 0 139
c0 77 -3 147 -6 156 -7 17 -55 45 -76 45 -7 -1 -25 -7 -39 -15z"/>
<path d="M4221 5109 c-293 -52 -537 -278 -612 -568 -28 -106 -28 -268 0 -376
56 -217 207 -403 403 -499 209 -103 471 -105 669 -6 401 201 552 661 346 1055
-32 61 -65 103 -137 175 -107 107 -199 163 -330 200 -86 25 -255 34 -339 19z
m254 -174 c171 -36 335 -164 409 -318 96 -199 81 -422 -40 -600 -114 -166
-290 -258 -493 -258 -170 1 -293 52 -417 176 -123 122 -174 244 -174 418 0
108 20 191 67 276 47 87 94 142 167 197 141 106 311 145 481 109z"/>
<path d="M4040 4665 c-16 -17 -24 -37 -24 -61 0 -31 12 -46 107 -142 l106
-107 -103 -105 c-60 -60 -107 -117 -111 -133 -16 -61 41 -118 102 -102 16 4
73 51 133 111 l105 103 107 -106 c96 -95 111 -107 142 -107 49 0 86 36 86 82
0 31 -12 48 -107 143 l-107 109 107 109 c96 98 107 113 107 146 0 49 -36 85
-85 85 -33 0 -48 -11 -146 -107 l-109 -107 -109 107 c-95 95 -112 107 -143
107 -24 0 -42 -8 -58 -25z"/>
<path d="M4245 3149 c-194 -28 -385 -139 -500 -290 -61 -81 -118 -203 -140
-299 -22 -96 -22 -253 -1 -345 22 -92 92 -235 153 -310 208 -256 573 -351 879
-229 215 87 390 282 456 509 29 103 32 294 4 394 -85 309 -333 527 -649 570
-88 12 -116 12 -202 0z m259 -185 c253 -62 447 -315 446 -582 -1 -272 -210
-521 -482 -576 -93 -19 -120 -19 -221 -1 -143 25 -278 106 -363 217 -85 110
-124 228 -124 375 0 289 210 532 502 582 63 11 161 5 242 -15z"/>
<path d="M3952 2447 c-31 -33 -29 -87 4 -118 l26 -24 346 -3 c233 -2 359 0
384 8 66 19 86 92 38 140 -19 19 -35 20 -398 20 l-379 0 -21 -23z"/>
</g>
</svg>
