<?xml version="1.0" standalone="no"?>
<!DOCTYPE svg PUBLIC "-//W3C//DTD SVG 20010904//EN"
 "http://www.w3.org/TR/2001/REC-SVG-20010904/DTD/svg10.dtd">
<svg version="1.0" xmlns="http://www.w3.org/2000/svg"
 width="512.000000pt" height="512.000000pt" viewBox="0 0 512.000000 512.000000"
 preserveAspectRatio="xMidYMid meet">
<metadata>
Created by potrace 1.16, written by Peter Selinger 2001-2019
</metadata>
<g transform="translate(0.000000,512.000000) scale(0.100000,-0.100000)"
fill="#000000" stroke="none">
<path d="M4130 5039 c-140 -55 -212 -87 -227 -105 -41 -45 -25 -132 28 -160
43 -22 68 -18 191 30 62 24 123 47 136 50 l22 7 -2 -351 -3 -352 -1125 -429
c-618 -236 -1125 -429 -1127 -429 -2 0 -2 158 -1 352 l3 352 625 238 c671 256
670 255 670 324 0 66 -43 114 -104 114 -12 0 -323 -115 -692 -255 -465 -178
-677 -264 -694 -281 l-25 -24 -5 -1465 -5 -1465 -53 40 c-119 89 -252 133
-407 133 -168 0 -298 -43 -427 -143 -102 -79 -175 -180 -224 -312 -22 -61 -28
-94 -32 -198 -5 -149 8 -214 67 -335 87 -176 254 -311 446 -360 78 -20 253
-20 330 0 245 63 436 252 502 496 16 59 17 164 20 1311 l4 1246 67 26 c37 14
544 208 1127 430 l1060 404 3 -450 c1 -247 1 -649 0 -894 l-3 -443 -45 36
c-64 51 -190 109 -277 129 -114 25 -263 16 -374 -23 -172 -60 -305 -176 -385
-338 -100 -202 -99 -422 3 -623 70 -141 224 -277 370 -327 263 -92 526 -33
719 159 89 90 129 152 171 271 l28 80 3 1765 c2 1317 -1 1772 -9 1793 -33 80
-89 76 -349 -24z m-215 -2944 c89 -24 170 -71 231 -137 155 -169 173 -393 47
-586 -46 -69 -103 -117 -188 -158 -283 -136 -614 41 -666 354 -53 321 262 608
576 527z m-2442 -966 c157 -52 277 -182 318 -343 7 -28 10 -83 7 -136 -5 -76
-11 -101 -42 -165 -124 -263 -441 -354 -682 -197 -337 221 -260 724 131 848
65 21 196 17 268 -7z"/>
<path d="M3516 4789 c-54 -64 -22 -159 59 -175 60 -11 125 44 125 106 0 29
-27 77 -49 90 -11 5 -40 10 -64 10 -38 0 -49 -5 -71 -31z"/>
</g>
</svg>
