<?xml version="1.0" standalone="no"?>
<!DOCTYPE svg PUBLIC "-//W3C//DTD SVG 20010904//EN"
 "http://www.w3.org/TR/2001/REC-SVG-20010904/DTD/svg10.dtd">
<svg version="1.0" xmlns="http://www.w3.org/2000/svg"
 width="512.000000pt" height="512.000000pt" viewBox="0 0 512.000000 512.000000"
 preserveAspectRatio="xMidYMid meet">
<metadata>
Created by potrace 1.16, written by Peter Selinger 2001-2019
</metadata>
<g transform="translate(0.000000,512.000000) scale(0.100000,-0.100000)"
fill="#000000" stroke="none">
<path d="M2902 5094 c-87 -43 -131 -118 -139 -236 l-6 -78 -96 0 c-104 0 -296
-21 -413 -45 -427 -88 -832 -298 -1154 -598 l-72 -67 -136 0 c-173 0 -206 -14
-206 -84 0 -13 9 -35 21 -50 l20 -26 550 0 c603 0 592 1 624 -60 23 -44 23
-1276 0 -1320 -25 -48 -61 -60 -176 -60 -124 0 -175 -20 -217 -83 -24 -37 -27
-52 -32 -158 l-5 -118 -234 169 c-129 93 -248 174 -264 180 -19 6 -162 10
-372 10 -218 0 -353 4 -373 11 -17 6 -39 23 -49 37 -17 25 -18 65 -18 668 0
529 2 646 14 667 23 43 67 57 179 57 97 0 101 1 121 26 40 51 18 114 -44 130
-15 4 -75 5 -133 2 -95 -4 -114 -8 -161 -33 -57 -32 -91 -69 -116 -128 -23
-55 -23 -1379 0 -1434 42 -100 122 -152 244 -160 l78 -6 7 -101 c9 -131 39
-302 77 -446 249 -938 1074 -1645 2041 -1749 143 -16 438 -13 575 4 510 67
986 293 1340 638 95 92 103 103 103 138 0 29 -6 42 -26 58 -51 40 -75 30 -187
-77 -57 -53 -146 -129 -197 -169 -89 -67 -254 -173 -270 -173 -9 0 -257 309
-295 368 -24 36 -26 45 -14 53 8 5 170 9 360 9 395 0 410 2 483 76 79 78 76
51 76 801 l0 663 40 59 c170 248 201 571 81 836 -17 37 -31 69 -31 71 0 2 26
4 58 4 31 1 80 9 109 19 l51 17 41 -85 c89 -190 157 -423 186 -645 24 -176 17
-512 -14 -671 -58 -306 -164 -577 -319 -816 -72 -112 -80 -153 -36 -188 62
-49 109 -13 212 161 169 286 274 591 318 928 23 176 15 536 -15 705 -39 220
-105 426 -203 635 l-49 105 -2 700 -2 700 -30 54 c-16 29 -43 64 -60 77 -74
56 -33 54 -948 54 l-843 0 -52 -26z m1726 -144 c52 -35 52 -29 52 -699 0 -681
1 -675 -59 -705 -25 -14 -81 -16 -374 -16 -234 0 -355 -4 -378 -12 -19 -6
-136 -85 -261 -175 -124 -89 -228 -163 -231 -163 -2 0 -6 47 -9 105 -4 93 -8
109 -34 151 -45 74 -93 94 -221 94 -181 0 -193 16 -193 254 l0 165 -26 20
c-50 39 -114 18 -130 -43 -3 -14 -4 -101 -2 -193 4 -190 16 -233 85 -294 l37
-32 -11 -63 c-22 -125 -88 -231 -194 -309 -151 -111 -363 -113 -543 -4 l-61
37 -3 338 -2 339 29 55 c41 78 53 130 52 239 -1 143 -44 281 -125 400 -20 30
-35 55 -34 56 2 2 48 17 103 34 180 55 408 91 578 91 l87 0 0 -185 c0 -144 3
-192 15 -214 24 -46 74 -55 119 -20 l26 20 0 326 c0 383 1 387 90 417 8 2 371
4 805 3 681 -2 793 -4 813 -17z m-2769 -557 c74 -90 131 -239 131 -343 l0 -51
-29 20 c-60 43 -76 45 -391 51 l-305 5 80 63 c114 91 229 165 358 233 62 32
115 59 119 59 3 0 20 -17 37 -37z m1335 -1039 c13 -12 16 -41 16 -148 0 -120
2 -136 21 -160 49 -62 128 -73 200 -27 42 26 194 134 265 188 l31 23 -9 -52
c-14 -83 -79 -206 -152 -287 -76 -84 -117 -162 -124 -232 l-5 -49 -451 0
c-432 0 -453 -1 -496 -21 -25 -11 -58 -32 -74 -47 -39 -37 -76 -118 -76 -169
0 -41 -2 -44 -52 -69 -64 -33 -151 -113 -195 -181 -33 -52 -103 -242 -103
-281 0 -34 11 -52 41 -68 62 -31 106 5 139 116 12 41 31 92 42 114 21 41 104
136 119 136 5 0 9 -244 9 -543 l0 -543 26 -52 c52 -104 129 -142 289 -142 65
0 105 -4 113 -12 8 -8 12 -53 12 -135 0 -142 12 -182 62 -213 42 -26 113 -26
154 -1 17 10 97 67 178 125 81 59 153 109 159 112 7 2 32 -23 57 -58 24 -35
91 -120 147 -190 57 -70 103 -130 103 -132 0 -21 -283 -117 -438 -150 -292
-61 -606 -65 -892 -10 -489 92 -958 368 -1282 753 -83 99 -238 324 -238 344 1
14 106 95 173 132 131 74 184 67 284 -34 38 -38 86 -78 109 -89 109 -55 262
-68 376 -32 131 40 278 170 278 244 0 49 -29 80 -74 80 -32 0 -44 -8 -96 -62
-107 -113 -220 -147 -357 -107 -44 13 -67 29 -124 86 -90 90 -155 122 -249
122 -107 0 -193 -35 -333 -136 -38 -26 -70 -47 -72 -45 -8 8 -75 180 -99 253
-54 167 -106 444 -106 566 l0 39 205 0 206 0 250 -180 c137 -100 261 -185 275
-190 40 -15 86 -12 121 10 59 36 67 59 73 214 l5 141 121 6 c141 6 192 25 249
92 54 63 65 115 65 309 l0 168 49 -25 c124 -62 314 -84 446 -50 240 61 434
274 469 518 l7 47 69 0 c49 0 73 -4 84 -16z m1145 -50 c131 -199 138 -459 18
-686 -16 -32 -33 -58 -36 -58 -3 0 -28 11 -55 25 l-49 25 -309 0 c-303 0 -308
0 -308 20 0 38 27 84 85 150 137 152 185 264 205 478 5 59 14 98 22 103 7 5
96 9 198 9 l186 0 43 -66z m-122 -878 l28 -24 3 -649 c2 -475 -1 -655 -9 -676
-23 -55 -36 -57 -411 -57 -198 0 -358 -4 -378 -10 -19 -6 -141 -87 -270 -180
l-235 -170 -5 113 c-6 123 -18 156 -70 200 -42 36 -89 47 -198 47 -97 0 -125
8 -154 44 -16 19 -18 70 -18 674 l0 654 29 29 29 29 816 0 815 0 28 -24z"/>
<path d="M3745 4805 c-22 -21 -25 -33 -25 -100 l0 -75 -204 0 c-191 0 -205 -1
-230 -21 -33 -26 -37 -88 -6 -119 17 -17 33 -20 113 -20 l94 0 17 -62 c27 -96
80 -213 135 -294 l50 -73 -34 -29 c-60 -54 -125 -94 -241 -149 -89 -42 -117
-60 -125 -80 -21 -55 15 -113 69 -113 58 0 273 113 380 199 l62 51 60 -49 c33
-28 90 -68 127 -90 77 -45 223 -111 247 -111 54 0 96 56 79 107 -8 23 -32 39
-140 93 -126 63 -178 95 -235 148 l-26 24 43 64 c56 82 108 192 137 288 l22
76 91 0 c78 0 94 3 113 20 28 26 29 79 3 111 -19 24 -22 24 -230 27 l-211 3 0
75 c0 66 -3 78 -25 99 -15 16 -36 25 -55 25 -19 0 -40 -9 -55 -25z m191 -367
c-7 -35 -96 -220 -121 -252 -15 -20 -15 -20 -30 0 -26 34 -85 151 -110 218
l-25 66 146 0 147 0 -7 -32z"/>
<path d="M2885 2170 c-11 -12 -19 -36 -19 -55 0 -19 8 -43 19 -55 16 -18 30
-20 139 -20 67 0 138 -5 158 -10 102 -29 120 -158 28 -205 -22 -11 -65 -15
-175 -15 -142 0 -147 -1 -170 -25 -16 -15 -25 -36 -25 -55 0 -19 9 -40 25 -55
23 -24 28 -25 170 -25 156 0 188 -8 219 -52 39 -55 2 -148 -66 -166 -45 -11
-182 5 -235 28 -25 11 -61 33 -79 50 -65 57 -154 31 -154 -46 0 -61 122 -148
251 -179 97 -22 252 -20 304 5 52 25 108 80 131 129 22 43 30 158 16 201 l-11
30 139 0 138 0 4 -169 c4 -197 9 -211 84 -211 75 0 74 -7 74 407 l0 363 69 0
c63 0 71 2 90 26 27 34 27 64 0 98 l-20 26 -214 0 c-207 0 -215 -1 -235 -22
-11 -12 -20 -35 -20 -53 0 -53 30 -75 105 -75 l65 0 0 -115 0 -115 -139 0
-140 0 11 30 c14 43 6 158 -16 201 -23 50 -82 108 -131 130 -34 16 -66 19
-206 19 -155 0 -167 -1 -184 -20z"/>
<path d="M985 3711 c-12 -5 -26 -15 -32 -22 -22 -27 -353 -923 -353 -955 0
-61 86 -98 128 -56 10 10 34 60 53 110 l34 92 216 0 216 0 33 -87 c17 -49 43
-98 57 -110 45 -42 113 -21 128 40 7 28 -336 941 -364 970 -21 21 -86 31 -116
18z m195 -662 c0 -5 -67 -9 -150 -9 -82 0 -150 2 -150 5 0 8 140 376 147 388
5 8 153 -363 153 -384z"/>
</g>
</svg>
