<?xml version="1.0" standalone="no"?>
<!DOCTYPE svg PUBLIC "-//W3C//DTD SVG 20010904//EN"
 "http://www.w3.org/TR/2001/REC-SVG-20010904/DTD/svg10.dtd">
<svg version="1.0" xmlns="http://www.w3.org/2000/svg"
 width="512.000000pt" height="512.000000pt" viewBox="0 0 512.000000 512.000000"
 preserveAspectRatio="xMidYMid meet">
<metadata>
Created by potrace 1.16, written by Peter Selinger 2001-2019
</metadata>
<g transform="translate(0.000000,512.000000) scale(0.100000,-0.100000)"
fill="#000000" stroke="none">
<path d="M2420 4915 c-72 -20 -97 -32 -172 -80 -185 -120 -360 -374 -493 -715
-20 -52 -38 -96 -39 -97 -1 -2 -63 6 -137 16 -190 27 -326 34 -459 22 -357
-33 -574 -167 -658 -404 -21 -60 -25 -90 -25 -182 0 -60 5 -130 11 -154 10
-43 9 -46 -20 -80 -86 -98 -109 -243 -55 -353 30 -62 83 -115 149 -150 35 -19
60 -23 135 -24 l92 -1 60 -74 c34 -41 61 -76 61 -79 0 -3 -34 -47 -76 -99
-462 -578 -481 -1096 -49 -1306 213 -104 468 -126 834 -74 74 10 136 18 137
16 1 -1 19 -45 39 -97 174 -446 410 -727 669 -796 70 -19 210 -18 277 2 79 23
179 79 240 133 l53 47 59 -13 c112 -26 226 12 305 103 55 62 75 125 70 222 -3
81 -26 142 -73 192 l-23 25 34 90 c19 49 37 91 39 93 2 2 45 -3 97 -12 354
-61 685 -33 890 76 269 144 360 424 247 760 -54 160 -175 367 -318 545 -39 48
-71 90 -71 93 0 3 27 38 60 78 l59 73 83 2 c96 3 158 27 218 87 63 63 85 121
85 225 0 97 -19 149 -72 207 -24 25 -24 28 -12 85 21 97 16 257 -10 333 -83
243 -301 377 -665 410 -137 13 -332 3 -488 -25 -46 -8 -88 -15 -95 -15 -6 0
-19 21 -29 48 -104 285 -227 498 -374 648 -106 108 -204 171 -314 200 -63 17
-216 17 -276 -1z m314 -178 c139 -69 275 -227 390 -451 53 -102 132 -294 125
-300 -2 -2 -42 -13 -89 -25 -125 -33 -338 -106 -477 -162 l-123 -50 -122 50
c-140 56 -353 129 -478 162 -47 12 -87 23 -89 25 -6 5 51 146 104 259 93 196
226 372 337 449 97 66 161 87 259 84 76 -3 94 -7 163 -41z m-1189 -844 c61 -8
113 -18 117 -22 4 -3 -9 -69 -28 -146 -37 -147 -94 -464 -94 -519 0 -42 -7
-51 -125 -142 -113 -87 -293 -245 -375 -328 -30 -31 -57 -56 -61 -56 -4 0 -28
26 -52 57 l-45 57 29 43 c47 68 62 124 57 206 -11 168 -137 289 -300 291 -75
1 -72 -3 -84 97 -8 72 10 159 49 232 111 211 449 296 912 230z m2455 17 c182
-19 322 -70 411 -149 103 -91 150 -257 113 -406 -4 -18 -13 -20 -77 -20 -128
-1 -224 -61 -279 -172 -27 -55 -32 -77 -32 -137 -1 -85 14 -132 61 -192 38
-51 38 -50 -25 -124 l-30 -35 -93 90 c-131 125 -227 209 -344 299 -118 91
-125 100 -125 142 0 55 -57 372 -94 519 -19 77 -32 143 -28 147 4 3 61 13 127
22 199 27 281 30 415 16z m-2033 -110 c129 -37 380 -123 391 -135 7 -7 5 -8
-78 -50 -115 -57 -311 -170 -449 -257 -68 -43 -125 -77 -127 -75 -13 13 106
557 121 557 2 0 65 -18 142 -40z m1347 -12 c37 -128 111 -496 102 -505 -2 -3
-31 13 -63 35 -102 69 -304 187 -448 262 -157 82 -150 78 -143 85 16 16 490
172 530 175 4 0 13 -24 22 -52z m-588 -287 c194 -97 392 -212 581 -338 l141
-94 9 -127 c10 -164 10 -600 0 -764 l-9 -127 -141 -94 c-222 -148 -433 -268
-642 -368 l-107 -51 -162 80 c-198 100 -396 214 -583 339 l-141 94 -9 127
c-10 164 -10 600 0 764 l9 127 141 94 c78 52 194 125 257 162 114 68 473 255
489 255 4 0 79 -36 167 -79z m-1981 -341 c105 -65 94 -230 -18 -284 -122 -57
-265 59 -228 185 33 111 150 158 246 99z m3790 0 c105 -65 94 -230 -18 -284
-122 -57 -265 59 -228 185 33 110 151 158 246 99z m-3030 -599 c0 -336 -2
-378 -15 -368 -72 54 -251 212 -320 281 l-85 86 85 86 c63 63 325 294 334 294
1 0 1 -171 1 -379z m2250 263 c61 -51 148 -131 195 -178 l85 -86 -85 -86 c-69
-69 -248 -227 -320 -281 -13 -10 -15 32 -15 367 0 335 2 377 15 367 8 -6 65
-53 125 -103z m-2681 -471 c128 -123 225 -208 341 -297 118 -91 125 -100 125
-142 0 -55 57 -372 94 -519 19 -77 32 -143 28 -146 -4 -4 -59 -14 -122 -23
-316 -43 -539 -24 -715 59 -134 64 -212 161 -235 297 -28 158 49 389 209 626
60 90 170 232 179 232 3 0 46 -39 96 -87z m3131 15 c238 -299 359 -592 325
-786 -38 -218 -212 -338 -540 -373 -58 -6 -148 -8 -200 -4 -115 7 -322 35
-332 44 -4 3 11 76 32 161 32 130 52 241 96 526 3 25 25 47 122 122 109 85
330 280 396 351 17 17 33 31 36 31 4 0 33 -33 65 -72z m-2383 -600 c145 -92
306 -185 435 -251 57 -29 103 -55 103 -58 0 -16 -525 -187 -537 -176 -18 19
-134 557 -119 557 2 0 55 -32 118 -72z m1593 35 c-31 -182 -104 -506 -118
-520 -12 -12 -537 160 -537 176 0 3 57 35 127 71 132 68 328 183 448 262 39
26 74 47 78 47 4 1 5 -16 2 -36z m-794 -457 c111 -49 329 -125 474 -166 83
-24 152 -44 153 -46 2 -1 -8 -35 -23 -76 l-28 -73 -73 3 c-62 3 -83 0 -128
-21 -76 -35 -129 -87 -161 -158 -24 -54 -27 -71 -23 -143 2 -66 8 -92 31 -136
l28 -54 -33 -28 c-18 -15 -64 -44 -103 -65 -68 -37 -73 -38 -170 -38 -97 0
-104 2 -179 38 -139 69 -279 232 -394 459 -49 95 -128 286 -121 291 2 2 70 22
151 45 145 41 374 122 472 167 65 30 63 30 127 1z m580 -529 c103 -69 107
-209 7 -275 -96 -63 -223 -9 -249 105 -29 130 132 244 242 170z"/>
<path d="M2400 3091 c-185 -60 -319 -196 -374 -380 -21 -72 -21 -230 0 -302
56 -186 197 -327 383 -383 83 -25 239 -21 322 7 180 61 309 196 363 376 25 83
21 239 -7 322 -61 180 -196 309 -376 363 -75 22 -238 21 -311 -3z m303 -156
c109 -43 188 -123 234 -237 22 -54 25 -73 21 -153 -3 -78 -9 -102 -35 -156
-41 -82 -110 -152 -193 -192 -60 -30 -72 -32 -170 -32 -98 0 -110 2 -170 32
-83 41 -152 110 -193 193 -30 60 -32 72 -32 170 0 98 2 110 32 170 95 193 312
281 506 205z"/>
<path d="M2748 2613 c-9 -10 -21 -44 -28 -75 -9 -48 -19 -64 -61 -105 -41 -40
-49 -53 -49 -84 0 -46 25 -69 74 -69 32 0 46 8 95 58 65 64 91 124 91 207 0
38 -5 56 -18 68 -25 22 -85 22 -104 0z"/>
</g>
</svg>
