<?xml version="1.0" standalone="no"?>
<!DOCTYPE svg PUBLIC "-//W3C//DTD SVG 20010904//EN"
 "http://www.w3.org/TR/2001/REC-SVG-20010904/DTD/svg10.dtd">
<svg version="1.0" xmlns="http://www.w3.org/2000/svg"
 width="512.000000pt" height="512.000000pt" viewBox="0 0 512.000000 512.000000"
 preserveAspectRatio="xMidYMid meet">
<metadata>
Created by potrace 1.16, written by Peter Selinger 2001-2019
</metadata>
<g transform="translate(0.000000,512.000000) scale(0.100000,-0.100000)"
fill="#000000" stroke="none">
<path d="M954 4529 c-96 -10 -354 -54 -407 -69 -53 -16 -103 -63 -123 -118
-10 -26 -18 -48 -20 -50 -1 -2 -53 -13 -115 -26 -163 -34 -194 -43 -229 -72
-65 -55 -60 71 -60 -1659 0 -1761 -6 -1621 70 -1671 56 -37 93 -39 236 -10
574 114 1107 95 1541 -55 104 -36 156 -60 387 -178 l70 -36 257 0 257 0 168
87 c93 47 221 104 286 126 436 151 968 170 1542 56 143 -29 180 -27 236 10 76
50 70 -90 70 1671 0 1702 3 1602 -52 1651 -38 35 -63 44 -211 75 -78 16 -142
29 -143 29 0 0 -6 18 -13 40 -14 46 -52 95 -90 114 -36 19 -151 44 -311 68
-174 26 -571 36 -733 18 -383 -41 -707 -166 -949 -363 l-58 -47 -57 47 c-193
157 -467 280 -743 333 -195 38 -585 52 -806 29z m606 -160 c343 -40 667 -172
868 -353 l52 -48 0 -1423 0 -1424 -79 52 c-406 272 -977 366 -1610 265 -75
-12 -154 -22 -176 -22 l-40 -1 -5 1005 c-3 553 -9 1012 -13 1022 -12 23 -59
40 -91 32 -59 -14 -56 44 -56 -1064 0 -970 1 -1017 19 -1056 27 -59 80 -96
144 -102 30 -2 116 7 202 21 547 93 1005 43 1391 -151 44 -22 123 -69 175
-105 110 -74 141 -87 219 -87 78 0 109 13 219 88 409 278 931 363 1566 255
181 -30 239 -28 290 12 73 55 75 63 75 488 0 228 -4 386 -10 397 -13 24 -65
41 -93 31 -52 -20 -52 -18 -57 -415 l-5 -371 -40 1 c-22 0 -101 10 -176 22
-628 101 -1209 6 -1606 -262 l-83 -55 0 1424 0 1423 53 48 c61 55 186 138 274
183 284 142 646 206 1032 181 224 -14 506 -57 539 -83 9 -7 12 -205 12 -927 0
-913 0 -917 21 -944 26 -33 88 -37 119 -6 20 20 20 33 20 860 0 836 0 840 20
840 34 0 214 -41 228 -52 9 -8 12 -327 12 -1532 0 -836 -4 -1527 -8 -1533 -6
-10 -36 -7 -133 12 -720 141 -1431 71 -1899 -187 -182 -100 -152 -93 -370 -93
-218 0 -188 -7 -370 93 -468 258 -1179 328 -1899 187 -97 -19 -127 -22 -133
-12 -4 6 -8 697 -8 1533 0 1205 3 1524 13 1532 13 10 194 52 227 52 19 0 20
-8 20 -203 0 -191 1 -205 20 -225 31 -33 92 -30 119 4 20 26 21 39 21 309 0
214 3 285 13 293 13 10 179 44 310 62 200 29 468 32 667 9z"/>
<path d="M1045 3975 c-11 -2 -74 -9 -140 -16 -66 -6 -132 -18 -146 -25 -45
-23 -52 -74 -17 -119 24 -31 20 -31 268 -5 217 22 485 9 705 -35 162 -33 255
-64 415 -142 140 -68 178 -77 211 -47 25 23 26 95 2 116 -33 28 -167 96 -271
138 -234 93 -456 131 -782 135 -124 2 -234 2 -245 0z"/>
<path d="M3605 3970 c-221 -25 -417 -71 -574 -136 -101 -42 -243 -117 -261
-138 -19 -24 -15 -86 8 -108 21 -22 84 -27 105 -10 29 24 201 103 296 136 258
90 623 127 931 96 248 -26 244 -26 268 5 40 50 19 117 -40 129 -130 28 -577
43 -733 26z"/>
<path d="M1055 3354 c-283 -28 -307 -34 -323 -69 -18 -40 -14 -69 13 -95 27
-25 21 -25 290 0 300 28 642 -8 903 -95 57 -19 157 -62 222 -96 89 -46 124
-59 142 -54 41 13 58 36 58 77 0 51 -23 72 -152 136 -178 87 -370 145 -590
178 -98 14 -478 27 -563 18z"/>
<path d="M3660 3354 c-334 -31 -642 -122 -856 -255 -68 -41 -59 -135 13 -154
20 -5 53 8 142 53 181 93 353 147 564 177 153 22 402 29 552 16 290 -27 279
-27 303 4 28 36 28 67 -1 100 -20 24 -35 28 -132 41 -108 14 -497 26 -585 18z"/>
<path d="M1025 2730 c-204 -17 -258 -28 -282 -56 -25 -27 -29 -70 -10 -95 28
-36 50 -39 168 -22 164 22 527 23 681 0 230 -34 423 -95 595 -188 50 -27 100
-49 111 -49 11 0 31 9 46 21 33 26 37 88 6 119 -29 29 -251 135 -358 170 -110
37 -237 65 -377 86 -124 17 -446 26 -580 14z"/>
<path d="M3638 2730 c-293 -27 -534 -94 -761 -213 -105 -55 -129 -81 -119
-133 5 -29 46 -64 74 -64 11 0 57 20 101 44 174 95 375 159 603 192 157 24
519 24 683 1 118 -17 140 -14 168 22 19 25 15 68 -9 96 -21 23 -36 27 -143 41
-148 18 -467 26 -597 14z"/>
<path d="M1045 2110 c-197 -15 -276 -30 -302 -56 -28 -28 -30 -73 -4 -105 22
-28 50 -29 211 -9 157 19 464 17 616 -3 232 -32 451 -100 618 -193 82 -46 104
-51 139 -33 30 16 37 28 37 71 0 50 -20 67 -165 138 -261 127 -520 184 -876
194 -90 3 -213 1 -274 -4z"/>
<path d="M3715 2113 c-343 -21 -635 -100 -872 -235 -79 -45 -96 -71 -82 -124
9 -31 42 -54 78 -54 11 0 54 20 97 44 167 93 386 161 618 193 152 20 459 22
616 3 161 -20 189 -19 211 9 26 32 24 77 -4 105 -18 17 -43 26 -103 35 -169
24 -401 34 -559 24z"/>
</g>
</svg>
