<?xml version="1.0" standalone="no"?>
<!DOCTYPE svg PUBLIC "-//W3C//DTD SVG 20010904//EN"
 "http://www.w3.org/TR/2001/REC-SVG-20010904/DTD/svg10.dtd">
<svg version="1.0" xmlns="http://www.w3.org/2000/svg"
 width="512.000000pt" height="512.000000pt" viewBox="0 0 512.000000 512.000000"
 preserveAspectRatio="xMidYMid meet">
<metadata>
Created by potrace 1.16, written by Peter Selinger 2001-2019
</metadata>
<g transform="translate(0.000000,512.000000) scale(0.100000,-0.100000)"
fill="#000000" stroke="none">
<path d="M960 5101 c-149 -48 -275 -173 -320 -320 -20 -62 -20 -100 -20 -2116
0 -2028 0 -2054 20 -2118 38 -124 127 -229 244 -289 90 -46 167 -58 372 -58
l182 0 3 -79 c7 -139 35 -147 254 -74 l139 46 141 -46 c165 -55 205 -58 234
-21 17 22 21 41 21 100 l0 74 1109 0 c1106 0 1108 0 1135 21 32 25 36 84 7
120 -17 21 -30 24 -100 27 l-81 4 0 333 0 333 44 22 c53 25 111 86 137 144 18
40 19 95 19 1547 0 1422 -1 1507 -17 1522 -41 36 -120 25 -137 -18 -3 -9 -6
-679 -6 -1488 0 -1441 0 -1473 -20 -1504 -10 -18 -31 -40 -47 -50 -26 -17
-102 -18 -1555 -21 l-1528 -2 0 1885 0 1885 1523 0 c1429 0 1524 -1 1557 -18
61 -30 70 -62 70 -264 0 -97 3 -184 6 -193 10 -25 62 -47 95 -40 55 12 59 29
59 256 l0 206 -31 63 c-33 64 -86 112 -152 137 -24 9 -441 12 -1667 12 -1535
0 -1638 -1 -1690 -18z m70 -480 l0 -329 -46 -11 c-54 -14 -116 -43 -161 -77
-17 -13 -34 -24 -38 -24 -3 0 -5 118 -3 263 3 259 3 263 29 318 34 71 95 133
162 165 29 13 53 24 55 24 1 0 2 -148 2 -329z m-2 -778 l-3 -277 -45 -11 c-53
-14 -122 -47 -168 -82 l-33 -25 3 213 c3 207 4 216 29 270 35 74 89 132 152
163 28 14 55 26 59 26 5 0 7 -125 6 -277z m2 -721 l0 -277 -64 -19 c-36 -10
-87 -33 -115 -51 -28 -18 -55 -36 -61 -40 -8 -5 -11 52 -8 206 3 206 4 216 29
269 32 69 99 136 164 166 28 13 51 24 53 24 1 0 2 -125 2 -278z m0 -726 l0
-275 -57 -16 c-70 -21 -120 -45 -163 -81 l-32 -27 4 219 c4 246 11 273 84 354
37 41 126 100 152 100 9 0 12 -61 12 -274z m0 -825 l0 -378 -70 -23 c-39 -13
-95 -40 -126 -61 l-55 -39 3 318 3 317 33 67 c36 73 88 123 163 157 24 11 45
21 47 21 1 0 2 -170 2 -379z m3100 -871 l0 -330 -950 0 -950 0 0 125 0 125
134 0 c133 0 135 0 155 26 28 36 27 79 -4 109 l-24 25 -650 0 c-357 0 -657 -3
-666 -6 -25 -10 -48 -62 -40 -93 14 -57 26 -61 172 -61 l133 0 0 -125 0 -125
-195 0 c-171 0 -201 2 -249 20 -153 58 -247 239 -202 392 31 109 119 200 225
232 39 12 281 15 1579 15 l1532 1 0 -330z m-2070 -290 c0 -116 -4 -210 -8
-210 -5 0 -48 13 -97 30 -49 16 -103 30 -120 30 -17 0 -71 -14 -120 -30 -49
-17 -92 -30 -97 -30 -4 0 -8 94 -8 210 l0 210 225 0 225 0 0 -210z"/>
<path d="M2502 4167 c-21 -23 -22 -31 -22 -255 l0 -232 -225 0 c-238 0 -265
-4 -284 -47 -7 -15 -11 -107 -11 -254 l0 -230 25 -24 24 -25 236 0 235 0 0
-545 0 -546 25 -24 24 -25 235 0 c234 0 235 0 263 24 l28 24 3 546 2 546 234
0 c230 0 233 0 254 23 21 23 22 31 22 264 0 222 -1 243 -19 264 -19 24 -21 24
-255 27 l-235 3 -3 235 c-3 234 -3 236 -27 255 -21 18 -42 19 -265 19 -241 0
-243 0 -264 -23z m388 -362 c0 -143 4 -233 11 -248 19 -43 46 -47 284 -47
l225 0 0 -125 0 -125 -235 0 -236 0 -24 -25 -25 -24 0 -546 0 -545 -125 0
-125 0 0 547 0 547 -22 23 c-21 23 -24 23 -255 23 l-233 0 0 124 0 125 236 3
c234 3 236 3 255 27 17 21 19 42 19 257 l0 234 125 0 125 0 0 -225z"/>
</g>
</svg>
