<?xml version="1.0" encoding="UTF-8" standalone="no"?>
<svg
   version="1.0"
   width="512.000000pt"
   height="512.000000pt"
   viewBox="0 0 512.000000 512.000000"
   preserveAspectRatio="xMidYMid meet"
   id="svg14"
   sodipodi:docname="russian.svg"
   xml:space="preserve"
   inkscape:version="1.2.2 (b0a8486, 2022-12-01)"
   xmlns:inkscape="http://www.inkscape.org/namespaces/inkscape"
   xmlns:sodipodi="http://sodipodi.sourceforge.net/DTD/sodipodi-0.dtd"
   xmlns="http://www.w3.org/2000/svg"
   xmlns:svg="http://www.w3.org/2000/svg"><defs
     id="defs18"><rect
       x="226.29933"
       y="191.34252"
       width="310.9316"
       height="248.37732"
       id="rect1011" /><rect
       x="298.05278"
       y="178.4637"
       width="101.19076"
       height="84.63227"
       id="rect1005" /><rect
       x="226.29933"
       y="191.34251"
       width="310.93161"
       height="248.37732"
       id="rect1011-6" /><rect
       x="226.29933"
       y="191.34251"
       width="310.93161"
       height="248.37732"
       id="rect1011-6-0" /></defs><sodipodi:namedview
     id="namedview16"
     pagecolor="#505050"
     bordercolor="#eeeeee"
     borderopacity="1"
     inkscape:showpageshadow="0"
     inkscape:pageopacity="0"
     inkscape:pagecheckerboard="0"
     inkscape:deskcolor="#505050"
     inkscape:document-units="pt"
     showgrid="false"
     inkscape:zoom="0.62096173"
     inkscape:cx="267.32726"
     inkscape:cy="419.51055"
     inkscape:window-width="1440"
     inkscape:window-height="769"
     inkscape:window-x="0"
     inkscape:window-y="25"
     inkscape:window-maximized="1"
     inkscape:current-layer="g12" /><metadata
     id="metadata2">
Created by potrace 1.16, written by Peter Selinger 2001-2019
</metadata><g
     transform="translate(0.000000,512.000000) scale(0.100000,-0.100000)"
     fill="#000000"
     stroke="none"
     id="g12"><path
       d="M390 5101 c-185 -60 -319 -196 -374 -380 -14 -49 -16 -166 -16 -1084 l0 -1028 26 -77 c31 -93 53 -131 119 -201 64 -69 151 -126 234 -153 57 -18 99 -22 310 -27 l243 -6 21 -50 c31 -75 31 -256 -1 -343 -16 -41 -21 -72 -17 -92 9 -41 58 -80 100 -80 70 0 183 31 275 77 182 89 320 266 364 466 l6 27 166 0 c154 0 166 -1 161 -17 -2 -10 -16 -57 -30 -105 -45 -150 -60 -290 -54 -483 6 -185 25 -295 77 -455 69 -211 199 -426 359 -592 199 -208 403 -337 668 -424 360 -118 803 -96 1142 57 l63 29 68 -45 c138 -91 243 -120 422 -112 137 5 226 30 321 88 67 41 76 55 76 109 0 54 -7 65 -81 114 -105 69 -194 194 -213 298 -6 34 -2 46 45 119 102 159 171 323 217 519 34 145 43 434 19 592 -56 358 -215 660 -479 915 -259 249 -570 393 -949 438 l-47 6 -4 732 c-3 801 -1 771 -64 895 -35 70 -122 165 -190 208 -28 19 -85 45 -126 59 l-76 25 -479 0 -479 0 -27 -26 c-37 -38 -37 -110 0 -147 l25 -26 462 -3 c453 -3 463 -4 519 -26 112 -45 195 -147 217 -266 7 -39 11 -294 11 -742 l0 -682 -62 -7 c-358 -39 -706 -203 -961 -453 -86 -84 -204 -234 -256 -325 l-32 -57 -285 0 -285 0 -24 -24 c-25 -26 -27 -30 -43 -140 -20 -130 -101 -253 -217 -328 l-60 -39 -7 123 c-7 133 -26 209 -80 310 -52 98 -31 92 -352 98 l-281 5 -63 29 c-78 36 -151 113 -184 194 l-23 57 0 995 0 995 24 60 c33 81 115 163 196 196 60 23 62 23 522 27 l462 3 24 25 c43 43 43 105 0 149 l-26 25 -481 -1 c-433 0 -486 -2 -536 -18z m3409 -2136 c263 -59 490 -179 679 -359 221 -212 367 -486 417 -784 14 -81 16 -141 12 -275 -4 -150 -8 -187 -35 -287 -48 -183 -121 -337 -224 -477 -49 -68 -54 -93 -34 -195 21 -103 88 -244 150 -314 44 -49 45 -52 23 -58 -12 -3 -56 -6 -98 -6 -126 0 -248 49 -339 135 -41 39 -84 58 -114 49 -11 -3 -61 -25 -111 -49 -190 -91 -390 -136 -605 -136 -231 0 -434 50 -640 157 -372 193 -634 541 -726 965 -26 119 -26 419 0 539 61 279 187 512 386 710 224 224 487 355 815 404 68 10 372 -3 444 -19z"
       id="path4" /><path
       d="M1736 5094 c-37 -38 -37 -106 1 -146 22 -23 35 -28 74 -28 76 0 117 57 97 135 -11 43 -45 65 -99 65 -37 0 -52 -5 -73 -26z"
       id="path8" /><text
       xml:space="preserve"
       transform="matrix(7.5,0,0,-7.5,0,5120)"
       id="text1003"
       style="white-space:pre;shape-inside:url(#rect1005);display:inline;fill:#000000" /><text
       xml:space="preserve"
       transform="matrix(7.2447357,0,0,-7.2447357,755.98098,3822.8071)"
       id="text1009-5"
       style="font-style:normal;font-variant:normal;font-weight:normal;font-stretch:normal;font-size:213.333px;font-family:'Arial Rounded MT Bold';-inkscape-font-specification:'Arial Rounded MT Bold, Normal';font-variant-ligatures:normal;font-variant-caps:normal;font-variant-numeric:normal;font-variant-east-asian:normal;white-space:pre;shape-inside:url(#rect1011-6);display:inline;fill:#000000"><tspan
         x="226.29883"
         y="383.58858"
         id="tspan1597">RU</tspan></text><text
       xml:space="preserve"
       transform="matrix(12.40323,0,0,-12.40323,-2113.8862,8247.8143)"
       id="text1009-5-0"
       style="font-style:normal;font-variant:normal;font-weight:normal;font-stretch:normal;font-size:213.333px;font-family:'Arial Rounded MT Bold';-inkscape-font-specification:'Arial Rounded MT Bold, Normal';font-variant-ligatures:normal;font-variant-caps:normal;font-variant-numeric:normal;font-variant-east-asian:normal;letter-spacing:-10.0577px;white-space:pre;shape-inside:url(#rect1011-6-0);display:inline;fill:#000000"><tspan
         x="226.29883"
         y="383.58858"
         id="tspan1599">...</tspan></text></g></svg>
