<?xml version="1.0" standalone="no"?>
<!DOCTYPE svg PUBLIC "-//W3C//DTD SVG 20010904//EN"
 "http://www.w3.org/TR/2001/REC-SVG-20010904/DTD/svg10.dtd">
<svg version="1.0" xmlns="http://www.w3.org/2000/svg"
 width="512.000000pt" height="512.000000pt" viewBox="0 0 512.000000 512.000000"
 preserveAspectRatio="xMidYMid meet">
<metadata>
Created by potrace 1.16, written by Peter Selinger 2001-2019
</metadata>
<g transform="translate(0.000000,512.000000) scale(0.100000,-0.100000)"
fill="#000000" stroke="none">
<path d="M2221 5105 c-92 -21 -187 -54 -212 -74 -27 -22 -30 -82 -5 -110 27
-30 58 -33 122 -10 140 48 332 65 464 39 277 -53 515 -233 642 -485 38 -75 77
-207 84 -285 l7 -69 -39 14 c-22 8 -64 14 -95 15 -186 1 -457 98 -621 221
-108 80 -163 79 -277 -6 -158 -120 -373 -199 -575 -212 -56 -3 -118 -12 -138
-19 -37 -13 -38 -12 -38 10 0 39 20 138 42 206 41 127 99 226 205 348 44 52
63 81 63 100 -1 34 -19 58 -53 71 -44 17 -83 -5 -154 -88 -128 -151 -205 -305
-243 -489 -19 -95 -20 -134 -20 -826 l0 -726 -64 -29 c-217 -98 -377 -283
-457 -526 -21 -65 -23 -90 -27 -367 l-4 -298 -124 0 -124 0 0 448 c0 296 4
460 11 487 8 28 33 62 83 112 l71 73 44 -11 c52 -12 128 1 175 31 45 27 281
269 300 307 37 74 29 172 -20 244 -61 89 -200 117 -299 60 -69 -40 -289 -265
-314 -321 -21 -46 -27 -127 -12 -165 7 -16 -4 -33 -55 -88 -146 -155 -144
-143 -144 -718 l0 -456 -69 -5 c-115 -8 -186 -63 -217 -165 -16 -53 -19 -344
-4 -407 14 -63 59 -118 119 -148 51 -26 63 -28 183 -28 70 0 128 -3 128 -6 0
-28 205 -723 217 -736 23 -25 87 -24 113 2 12 12 20 33 20 52 0 17 -41 177
-91 355 -51 178 -90 326 -87 328 3 3 770 4 1705 3 l1700 -3 -93 -330 c-52
-181 -94 -342 -94 -356 0 -64 97 -96 137 -45 10 13 63 183 118 379 l100 357
120 0 c152 0 186 10 244 68 64 65 71 95 71 313 0 164 -3 189 -21 229 -40 89
-104 130 -211 138 l-67 5 -3 486 -3 486 -27 58 c-17 36 -55 87 -97 130 l-69
72 5 71 c9 112 -1 130 -160 291 -156 159 -193 183 -280 183 -96 0 -166 -42
-210 -125 -27 -53 -28 -145 -1 -200 21 -45 214 -249 284 -300 60 -44 129 -60
195 -45 l49 11 58 -58 c103 -102 98 -70 98 -601 l0 -462 -119 0 -118 0 -6 277
c-6 320 -15 375 -92 528 -83 167 -207 291 -367 368 l-87 42 -1 655 c0 690 -6
835 -40 965 -25 96 -91 239 -151 326 -56 83 -187 215 -268 269 -87 58 -229
124 -326 151 -104 28 -384 37 -484 14z m442 -991 c83 -42 257 -102 322 -111
l47 -6 -5 -206 c-3 -157 -8 -219 -22 -261 -69 -219 -244 -380 -465 -426 -294
-62 -610 142 -685 442 -12 47 -15 107 -13 255 l3 193 65 13 c152 31 306 97
439 190 l85 59 80 -54 c44 -29 111 -69 149 -88z m-983 -284 c0 -82 -3 -150 -7
-150 -20 0 -91 44 -107 67 -29 40 -32 120 -7 161 22 35 75 72 104 72 15 0 17
-14 17 -150z m1598 107 c45 -43 58 -97 37 -152 -18 -50 -37 -68 -88 -90 l-37
-15 0 151 0 151 28 -7 c15 -3 42 -21 60 -38z m50 -965 l-3 -200 -224 64 c-123
35 -233 72 -244 81 -48 45 -61 113 -24 131 44 21 138 103 182 160 63 79 99
144 129 232 l25 75 61 12 c34 7 69 17 78 22 16 9 17 -5 20 -184 1 -107 1 -283
0 -393z m-1687 555 l56 -10 13 -50 c38 -149 175 -330 313 -416 33 -20 34 -23
27 -58 -17 -71 -45 -87 -275 -153 -116 -33 -216 -60 -222 -60 -10 0 -13 84
-13 386 l0 386 23 -7 c12 -4 47 -12 78 -18z m-532 -423 c12 -15 21 -36 21 -47
0 -23 -218 -250 -262 -273 -51 -27 -109 21 -95 78 4 13 62 78 130 146 105 103
129 122 155 122 21 0 37 -8 51 -26z m2853 -102 c110 -109 128 -132 128 -159 0
-33 -37 -73 -68 -73 -9 0 -79 63 -155 139 -122 121 -138 142 -132 162 12 38
36 59 69 59 25 0 50 -20 158 -128z m-1615 -63 c64 -9 104 -9 175 1 138 19 129
20 145 -27 8 -23 33 -63 56 -89 l41 -47 -24 -19 c-36 -29 -107 -63 -169 -82
-71 -21 -211 -21 -282 0 -56 16 -173 77 -184 95 -4 5 11 29 33 53 21 23 47 64
57 90 17 43 21 47 44 42 14 -3 63 -11 108 -17z m-452 -261 c11 -50 225 -1151
225 -1159 0 -5 -28 -9 -63 -9 l-62 0 -151 327 -151 328 44 38 c52 46 73 84 73
129 0 19 -22 99 -48 178 l-49 145 76 22 c97 27 100 27 106 1z m1173 0 c43 -12
78 -22 79 -23 2 -1 -20 -69 -48 -151 -64 -191 -63 -215 17 -291 l54 -51 -151
-326 -152 -326 -63 0 c-35 0 -64 1 -64 3 0 2 16 82 35 177 19 96 32 183 29
194 -11 37 -36 56 -71 56 -74 0 -75 -3 -124 -258 l-33 -173 -145 3 -144 3
-103 525 c-57 289 -104 530 -104 537 0 7 24 1 63 -17 95 -45 169 -60 287 -60
136 0 242 27 351 87 3 2 -9 -72 -28 -164 -43 -215 -43 -240 -9 -270 34 -29 68
-29 101 0 23 20 30 47 76 285 28 144 56 262 61 262 5 0 44 -10 86 -22z m-1465
-203 l45 -135 -44 -37 c-25 -20 -52 -49 -60 -64 -32 -62 -22 -94 126 -413 77
-166 140 -305 140 -309 0 -4 -58 -7 -130 -7 l-130 0 0 84 c0 104 -19 136 -80
136 -61 0 -80 -32 -80 -136 l0 -84 -200 0 -200 0 0 263 c0 296 7 344 68 467
44 91 155 207 252 266 54 32 218 102 242 104 3 0 27 -61 51 -135z m1798 105
c218 -79 379 -240 446 -445 25 -76 26 -92 31 -352 l4 -273 -206 0 -206 0 0 87
c0 75 -3 90 -22 110 -27 29 -77 30 -109 4 -21 -17 -24 -29 -27 -110 l-4 -91
-130 0 c-100 0 -129 3 -125 13 3 6 66 144 141 305 124 267 136 298 136 350 0
55 -1 57 -57 111 l-56 54 44 134 c24 73 47 133 51 133 4 0 44 -13 89 -30z
m1154 -1255 c25 -24 25 -27 25 -190 0 -163 0 -166 -25 -190 l-24 -25 -2099 0
c-2052 0 -2100 0 -2123 19 -23 18 -24 25 -27 171 -4 168 -1 191 28 220 20 20
42 20 2120 20 l2101 0 24 -25z"/>
<path d="M4109 5100 c-208 -52 -360 -167 -438 -330 -35 -73 -36 -79 -36 -190
0 -100 3 -122 24 -168 l24 -53 -71 -72 c-80 -83 -94 -119 -69 -180 30 -71 14
-69 504 -65 427 4 440 4 508 27 120 40 204 90 286 171 88 87 132 167 150 273
40 242 -142 484 -436 577 -101 33 -337 38 -446 10z m401 -165 c87 -27 149 -63
212 -123 150 -143 150 -321 0 -464 -67 -64 -129 -98 -234 -129 -66 -20 -103
-22 -408 -26 l-335 -5 51 54 c71 75 74 98 28 199 -34 76 -36 87 -32 153 6 82
30 137 90 202 135 146 406 206 628 139z"/>
<path d="M3955 4635 c-16 -15 -25 -36 -25 -55 0 -19 9 -40 25 -55 15 -16 36
-25 55 -25 19 0 40 9 55 25 16 15 25 36 25 55 0 19 -9 40 -25 55 -15 16 -36
25 -55 25 -19 0 -40 -9 -55 -25z"/>
<path d="M4255 4635 c-16 -15 -25 -36 -25 -55 0 -19 9 -40 25 -55 15 -16 36
-25 55 -25 19 0 40 9 55 25 16 15 25 36 25 55 0 19 -9 40 -25 55 -15 16 -36
25 -55 25 -19 0 -40 -9 -55 -25z"/>
<path d="M4555 4635 c-16 -15 -25 -36 -25 -55 0 -19 9 -40 25 -55 15 -16 36
-25 55 -25 19 0 40 9 55 25 16 15 25 36 25 55 0 19 -9 40 -25 55 -15 16 -36
25 -55 25 -19 0 -40 -9 -55 -25z"/>
</g>
</svg>
