<?xml version="1.0" standalone="no"?>
<!DOCTYPE svg PUBLIC "-//W3C//DTD SVG 20010904//EN"
 "http://www.w3.org/TR/2001/REC-SVG-20010904/DTD/svg10.dtd">
<svg version="1.0" xmlns="http://www.w3.org/2000/svg"
 width="512.000000pt" height="512.000000pt" viewBox="0 0 512.000000 512.000000"
 preserveAspectRatio="xMidYMid meet">
<metadata>
Created by potrace 1.16, written by Peter Selinger 2001-2019
</metadata>
<g transform="translate(0.000000,512.000000) scale(0.100000,-0.100000)"
fill="#000000" stroke="none">
<path d="M1924 5100 c-17 -11 -39 -35 -49 -54 -15 -27 -29 -37 -74 -51 -279
-86 -549 -307 -696 -569 -68 -122 -145 -353 -145 -437 0 -23 -8 -32 -40 -49
-152 -78 -216 -267 -146 -434 17 -42 86 -118 131 -146 l32 -20 6 -142 c8 -209
55 -365 162 -547 57 -97 161 -235 214 -285 l31 -30 -91 -32 c-559 -200 -977
-668 -1173 -1316 -96 -318 -101 -517 -15 -621 39 -47 90 -80 160 -103 47 -16
105 -18 468 -22 436 -4 456 -2 486 42 8 11 15 39 15 62 0 46 -31 89 -72 99
-12 2 -203 6 -423 7 -360 3 -403 5 -432 21 -18 9 -38 27 -44 39 -44 82 55 473
187 744 164 336 397 584 717 763 l57 32 0 -74 c0 -181 80 -372 237 -568 59
-74 95 -95 145 -84 33 8 54 28 488 452 l115 113 289 -280 c303 -293 318 -304
378 -281 51 19 191 209 249 336 40 90 68 207 71 301 3 94 -9 91 113 21 89 -51
237 -162 294 -220 l44 -45 -64 -20 c-35 -11 -89 -23 -119 -27 -64 -9 -105 -27
-120 -54 -5 -11 -10 -78 -10 -150 0 -342 90 -637 286 -938 l53 -83 -844 -2
-845 -3 -27 -28 c-22 -22 -28 -37 -28 -73 0 -39 5 -50 33 -75 l32 -29 923 0
923 0 44 -46 c66 -68 151 -131 222 -164 73 -35 166 -40 238 -15 232 82 589
545 719 932 52 157 71 272 78 459 3 94 3 183 -1 198 -9 37 -45 56 -136 72
-210 37 -435 160 -642 352 -73 67 -81 72 -123 72 -43 0 -50 -4 -137 -86 -51
-47 -129 -110 -172 -139 l-79 -55 -91 88 c-188 181 -392 309 -638 399 l-77 28
65 75 c168 195 290 436 324 642 5 35 10 113 10 174 l0 111 50 32 c192 124 198
410 12 546 -26 19 -52 35 -59 35 -7 0 -15 17 -19 38 -40 229 -91 361 -204 531
-142 212 -391 399 -627 473 -31 9 -46 21 -54 40 -6 16 -27 42 -46 58 l-34 30
-237 0 c-219 0 -239 -2 -268 -20z m386 -232 c1 -136 21 -458 35 -553 14 -90
41 -213 71 -312 l6 -23 -235 0 -236 0 13 38 c54 154 85 375 93 665 l6 237 124
0 123 0 0 -52z m-460 -182 c0 -232 -41 -485 -107 -663 l-16 -43 -279 0 -279 0
7 38 c20 110 90 274 165 384 94 138 243 265 402 343 51 25 95 45 100 45 4 0 7
-47 7 -104z m773 53 c213 -106 370 -266 472 -480 41 -89 85 -222 85 -261 0
-17 -16 -18 -267 -16 l-266 3 -25 70 c-54 157 -83 335 -97 603 -5 88 -4 122 5
122 6 0 48 -18 93 -41z m708 -984 c37 -20 69 -70 69 -110 0 -43 -35 -94 -75
-111 -29 -12 -202 -14 -1151 -14 -1254 0 -1162 -6 -1205 75 -22 42 -23 47 -9
87 10 27 27 50 49 65 l34 23 1129 0 c1000 0 1132 -2 1159 -15z m-133 -572 c-6
-145 -24 -217 -89 -347 -170 -343 -502 -616 -828 -681 -102 -21 -177 -15 -294
22 -169 53 -312 140 -460 282 -249 239 -377 499 -377 767 l0 84 1026 0 1026 0
-4 -127z m-1594 -1057 c85 -56 194 -110 280 -139 l68 -23 -197 -189 -197 -189
-24 29 c-37 46 -102 183 -119 250 -15 61 -20 241 -7 261 6 10 89 40 118 43 6
1 41 -19 78 -43z m1306 19 c33 -11 35 -15 44 -71 17 -125 -28 -294 -114 -426
l-44 -66 -196 191 -197 192 86 31 c102 36 161 66 256 128 74 49 82 50 165 21z
m1463 -427 c51 -37 135 -90 187 -117 90 -47 288 -121 324 -121 13 0 16 -12 16
-69 0 -276 -116 -586 -323 -868 -126 -170 -267 -307 -346 -334 -25 -9 -38 -7
-76 12 -136 68 -362 344 -488 595 -97 193 -144 362 -154 555 l-6 105 59 13
c167 37 409 167 579 309 l59 50 39 -31 c21 -18 80 -62 130 -99z"/>
<path d="M4422 1265 c-17 -14 -83 -84 -147 -155 -64 -72 -121 -130 -126 -130
-5 0 -32 18 -60 40 -75 59 -150 55 -184 -10 -37 -72 -18 -104 128 -214 78 -58
94 -66 132 -66 35 0 51 6 74 28 52 49 328 357 339 379 55 102 -68 202 -156
128z"/>
<path d="M1500 437 c-34 -17 -63 -79 -55 -117 8 -39 58 -80 96 -80 37 0 85 24
99 49 26 50 4 122 -45 146 -40 18 -62 19 -95 2z"/>
</g>
</svg>
