<?xml version="1.0" encoding="UTF-8" standalone="no"?>
<svg
   version="1.0"
   width="512.000000pt"
   height="512.000000pt"
   viewBox="0 0 512.000000 512.000000"
   preserveAspectRatio="xMidYMid meet"
   id="svg10"
   sodipodi:docname="burger-menu-white.svg"
   inkscape:version="1.2.2 (b0a8486, 2022-12-01)"
   xmlns:inkscape="http://www.inkscape.org/namespaces/inkscape"
   xmlns:sodipodi="http://sodipodi.sourceforge.net/DTD/sodipodi-0.dtd"
   xmlns="http://www.w3.org/2000/svg"
   xmlns:svg="http://www.w3.org/2000/svg">
  <defs
     id="defs14" />
  <sodipodi:namedview
     id="namedview12"
     pagecolor="#505050"
     bordercolor="#eeeeee"
     borderopacity="1"
     inkscape:showpageshadow="0"
     inkscape:pageopacity="0"
     inkscape:pagecheckerboard="0"
     inkscape:deskcolor="#505050"
     inkscape:document-units="pt"
     showgrid="false"
     inkscape:zoom="0.34570313"
     inkscape:cx="109.9209"
     inkscape:cy="341.33333"
     inkscape:window-width="1343"
     inkscape:window-height="456"
     inkscape:window-x="0"
     inkscape:window-y="25"
     inkscape:window-maximized="0"
     inkscape:current-layer="svg10" />
  <g
     transform="translate(0.000000,512.000000) scale(0.100000,-0.100000)"
     fill="#000000"
     stroke="none"
     id="g8"
     style="fill:#ffffff">
    <path
       d="M799 3906 c-56 -20 -96 -53 -126 -104 -24 -40 -28 -58 -28 -123 0 -67 4 -81 30 -125 19 -30 49 -60 79 -79 l49 -30 1757 0 1757 0 49 30 c30 19 60 49 79 79 27 44 30 58 30 126 0 68 -3 82 -30 126 -19 30 -49 60 -79 79 l-49 30 -1741 2 c-1406 2 -1748 0 -1777 -11z"
       id="path2"
       style="fill:#ffffff" />
    <path
       d="M799 2786 c-56 -20 -96 -53 -126 -104 -24 -40 -28 -58 -28 -123 0 -67 4 -81 30 -125 19 -30 49 -60 79 -79 l49 -30 1757 0 1757 0 49 30 c30 19 60 49 79 79 27 44 30 58 30 126 0 68 -3 82 -30 126 -19 30 -49 60 -79 79 l-49 30 -1741 2 c-1406 2 -1748 0 -1777 -11z"
       id="path4"
       style="fill:#ffffff" />
    <path
       d="M799 1666 c-56 -20 -96 -53 -126 -104 -24 -40 -28 -58 -28 -123 0 -67 4 -81 30 -125 19 -30 49 -60 79 -79 l49 -30 1757 0 1757 0 49 30 c30 19 60 49 79 79 27 44 30 58 30 126 0 68 -3 82 -30 126 -19 30 -49 60 -79 79 l-49 30 -1741 2 c-1406 2 -1748 0 -1777 -11z"
       id="path6"
       style="fill:#ffffff" />
  </g>
</svg>
