<?xml version="1.0" encoding="UTF-8" standalone="no"?>
<svg
   version="1.0"
   width="512.000000pt"
   height="512.000000pt"
   viewBox="0 0 512.000000 512.000000"
   preserveAspectRatio="xMidYMid meet"
   id="svg6"
   sodipodi:docname="close-white.svg"
   inkscape:version="1.2.2 (b0a8486, 2022-12-01)"
   xmlns:inkscape="http://www.inkscape.org/namespaces/inkscape"
   xmlns:sodipodi="http://sodipodi.sourceforge.net/DTD/sodipodi-0.dtd"
   xmlns="http://www.w3.org/2000/svg"
   xmlns:svg="http://www.w3.org/2000/svg">
  <defs
     id="defs10" />
  <sodipodi:namedview
     id="namedview8"
     pagecolor="#505050"
     bordercolor="#eeeeee"
     borderopacity="1"
     inkscape:showpageshadow="0"
     inkscape:pageopacity="0"
     inkscape:pagecheckerboard="0"
     inkscape:deskcolor="#505050"
     inkscape:document-units="pt"
     showgrid="false"
     inkscape:zoom="0.34570313"
     inkscape:cx="-118.59887"
     inkscape:cy="341.33333"
     inkscape:window-width="1343"
     inkscape:window-height="456"
     inkscape:window-x="0"
     inkscape:window-y="25"
     inkscape:window-maximized="0"
     inkscape:current-layer="svg6" />
  <g
     transform="translate(0.000000,512.000000) scale(0.100000,-0.100000)"
     fill="#000000"
     stroke="none"
     id="g4"
     style="fill:#000000">
    <path
       d="M271 5109 c-104 -20 -194 -91 -239 -187 -22 -47 -27 -71 -27 -137 0 -155 -68 -78 1075 -1220 l1010 -1010 -1019 -1020 c-827 -829 -1022 -1029 -1041 -1070 -34 -71 -35 -199 -2 -270 29 -63 93 -129 157 -163 72 -37 187 -42 270 -12 58 22 94 56 1083 1044 l1022 1021 1018 -1016 c817 -816 1027 -1021 1067 -1040 42 -20 65 -24 145 -24 83 0 101 4 145 27 62 32 129 103 158 166 32 68 30 197 -3 267 -19 41 -214 241 -1041 1070 l-1019 1020 1010 1010 c1143 1142 1075 1065 1075 1220 0 65 -5 90 -26 135 -81 172 -284 242 -454 158 -26 -13 -391 -370 -1057 -1036 l-1018 -1017 -1017 1017 c-667 666 -1032 1023 -1058 1036 -34 17 -145 45 -164 41 -3 -1 -26 -5 -50 -10z"
       id="path2"
       style="fill:#000000" />
  </g>
</svg>
