<?xml version="1.0" encoding="UTF-8" standalone="no"?>
<svg
   version="1.0"
   width="512.000000pt"
   height="512.000000pt"
   viewBox="0 0 512.000000 512.000000"
   preserveAspectRatio="xMidYMid meet"
   id="svg6"
   sodipodi:docname="search-white.svg"
   inkscape:version="1.2.2 (b0a8486, 2022-12-01)"
   xmlns:inkscape="http://www.inkscape.org/namespaces/inkscape"
   xmlns:sodipodi="http://sodipodi.sourceforge.net/DTD/sodipodi-0.dtd"
   xmlns="http://www.w3.org/2000/svg"
   xmlns:svg="http://www.w3.org/2000/svg">
  <defs
     id="defs10" />
  <sodipodi:namedview
     id="namedview8"
     pagecolor="#505050"
     bordercolor="#eeeeee"
     borderopacity="1"
     inkscape:showpageshadow="0"
     inkscape:pageopacity="0"
     inkscape:pagecheckerboard="0"
     inkscape:deskcolor="#505050"
     inkscape:document-units="pt"
     showgrid="false"
     inkscape:zoom="0.34570313"
     inkscape:cx="102.68927"
     inkscape:cy="341.33333"
     inkscape:window-width="1343"
     inkscape:window-height="456"
     inkscape:window-x="0"
     inkscape:window-y="25"
     inkscape:window-maximized="0"
     inkscape:current-layer="svg6" />
  <g
     transform="translate(0.000000,512.000000) scale(0.100000,-0.100000)"
     fill="#000000"
     stroke="none"
     id="g4"
     style="fill:#ffffff;fill-opacity:1">
    <path
       d="M1851 5109 c-657 -74 -1219 -432 -1555 -989 -138 -229 -223 -463 -273 -745 -26 -151 -23 -500 5 -655 120 -657 508 -1187 1087 -1487 310 -160 591 -228 945 -227 431 0 785 107 1145 345 l119 79 696 -693 c469 -468 708 -700 735 -713 54 -25 167 -25 215 0 120 63 175 193 135 317 -17 51 -54 91 -717 755 l-699 701 77 114 c371 548 453 1234 222 1869 -75 208 -219 450 -375 631 -260 300 -628 533 -1005 634 -230 62 -542 89 -757 64z m357 -510 c380 -41 677 -182 943 -448 271 -271 415 -579 451 -963 32 -343 -60 -693 -263 -998 -84 -127 -282 -325 -409 -409 -512 -341 -1143 -359 -1664 -47 -376 224 -641 602 -728 1039 -32 160 -32 414 0 574 90 451 367 835 767 1062 267 152 604 223 903 190z"
       id="path2"
       style="fill:#ffffff;fill-opacity:1" />
  </g>
</svg>
